<svg width="75" height="74" viewBox="0 0 75 74" fill="none" xmlns="http://www.w3.org/2000/svg">
<g clip-path="url(#clip0)">
<path d="M63.5666 64.7272C63.5666 64.7272 65.3165 67.6842 70.6831 70.149C76.0497 72.6139 80.7813 70.9427 81.7892 68.8434C82.7972 66.7441 79.5771 65.2649 80.585 63.1651C81.593 61.0652 84.8129 62.5441 85.8207 60.4443C86.8284 58.3445 85.1205 53.7161 79.7539 51.2513C74.3872 48.7866 69.4952 50.8093 69.4952 50.8093H69.5734C69.5734 50.8093 72.8321 50.034 75.9146 45.0801C78.9971 40.1263 77.8082 35.3451 75.7825 34.139C73.7568 32.9329 71.9072 35.9055 69.8815 34.6989C67.8559 33.4923 69.7055 30.5205 67.6798 29.3145C65.6541 28.1084 60.766 29.2713 57.6834 34.2251C54.6007 39.179 55.3934 42.3663 55.3934 42.3663H55.1396C55.1396 42.3663 55.9322 39.179 52.8496 34.2251C49.767 29.2713 44.879 28.1083 42.8532 29.3145C40.8273 30.5206 42.6771 33.4928 40.6514 34.6989C38.6257 35.905 36.7761 32.9324 34.7504 34.139C32.7248 35.3456 31.5357 40.1263 34.6184 45.0801C37.701 50.034 40.9596 50.8093 40.9596 50.8093H41.0377C41.0377 50.8093 36.1457 48.7868 30.7791 51.2513C25.4124 53.7158 23.7044 58.3445 24.7123 60.4443C25.7202 62.5441 28.9401 61.0652 29.9479 63.1651C30.9557 65.2649 27.7358 66.7436 28.7437 68.8434C29.7516 70.9432 34.4833 72.614 39.8498 70.149C45.2164 67.684 46.9663 64.7272 46.9663 64.7272C46.9663 64.7272 44.5949 67.047 44.5949 72.8461C44.5949 78.6453 48.1522 82.125 50.5236 82.125C52.895 82.125 52.895 78.6454 55.2665 78.6454C57.6379 78.6454 57.6379 82.125 60.0093 82.125C62.3808 82.125 65.9381 78.6454 65.9381 72.8461C65.9381 67.0468 63.5666 64.7272 63.5666 64.7272Z" fill="#E166B0"/>
<path d="M55.2667 45.6908C61.4581 45.6908 66.4772 50.7099 66.4772 56.9013C66.4772 63.0927 61.4581 68.1118 55.2667 68.1118C49.0753 68.1118 44.0562 63.0927 44.0562 56.9013C44.0562 50.7099 49.0753 45.6908 55.2667 45.6908Z" fill="#DA3F9C"/>
<path d="M66.4766 41.4868L55.2661 52.6974L58.0687 55.5L66.4766 41.4868Z" fill="#D21988"/>
<path d="M44.0556 41.4868L55.2661 52.6974L52.4635 55.5L44.0556 41.4868Z" fill="#D21988"/>
<path d="M35.6478 60.9975L51.426 59.4482L51.0387 55.5036L35.6478 60.9975Z" fill="#D21988"/>
<path d="M75.6257 60.9975L59.8475 59.4482L60.2348 55.5036L75.6257 60.9975Z" fill="#D21988"/>
<path d="M55.6652 76.5198L53.7951 60.7764L57.731 60.3089L55.6652 76.5198Z" fill="#D21988"/>
<path d="M55.2664 51.2958C58.3621 51.2958 60.8717 53.8054 60.8717 56.9011C60.8717 59.9968 58.3621 62.5063 55.2664 62.5063C52.1707 62.5063 49.6611 59.9968 49.6611 56.9011C49.6611 53.8054 52.1707 51.2958 55.2664 51.2958Z" fill="#F4C30E"/>
<path d="M16.1141 16.7708C16.1141 16.7708 15.5965 15.8962 14.0092 15.1672C12.4219 14.4381 11.0224 14.9324 10.7243 15.5534C10.4262 16.1743 11.3786 16.6118 11.0805 17.2329C10.7824 17.8539 9.82999 17.4165 9.53192 18.0376C9.23384 18.6587 9.73901 20.0276 11.3263 20.7567C12.9136 21.4857 14.3606 20.8874 14.3606 20.8874L14.3374 20.8874C14.3374 20.8874 13.3736 21.1167 12.4619 22.5819C11.5502 24.0471 11.9018 25.4613 12.5009 25.818C13.1001 26.1748 13.6472 25.2956 14.2463 25.6524C14.8454 26.0093 14.2984 26.8883 14.8975 27.245C15.4967 27.6017 16.9425 27.2578 17.8542 25.7926C18.766 24.3274 18.5315 23.3846 18.5315 23.3846L18.6066 23.3846C18.6066 23.3846 18.3722 24.3274 19.2839 25.7926C20.1957 27.2578 21.6414 27.6018 22.2406 27.245C22.8398 26.8883 22.2927 26.0092 22.8918 25.6524C23.491 25.2957 24.038 26.1749 24.6372 25.818C25.2363 25.4612 25.588 24.0471 24.6763 22.5819C23.7645 21.1167 22.8007 20.8874 22.8007 20.8874L22.7776 20.8874C22.7776 20.8874 24.2245 21.4856 25.8118 20.7567C27.3991 20.0277 27.9043 18.6587 27.6062 18.0376C27.3081 17.4165 26.3557 17.8539 26.0577 17.2329C25.7596 16.6118 26.712 16.1744 26.4138 15.5534C26.1157 14.9323 24.7162 14.4381 23.1289 15.1672C21.5416 15.8963 21.0241 16.7708 21.0241 16.7708C21.0241 16.7708 21.7255 16.0847 21.7255 14.3695C21.7255 12.6542 20.6733 11.625 19.9719 11.625C19.2705 11.625 19.2705 12.6542 18.5691 12.6542C17.8677 12.6542 17.8677 11.625 17.1662 11.625C16.4648 11.625 15.4127 12.6542 15.4127 14.3695C15.4127 16.0847 16.1141 16.7708 16.1141 16.7708Z" fill="#E166B0"/>
<path d="M18.569 22.4011C16.7377 22.4011 15.2532 20.9166 15.2532 19.0853C15.2532 17.2541 16.7377 15.7695 18.569 15.7695C20.4002 15.7695 21.8848 17.2541 21.8848 19.0853C21.8848 20.9166 20.4002 22.4011 18.569 22.4011Z" fill="#DA3F9C"/>
<path d="M15.2535 23.6447L18.5693 20.3289L17.7404 19.5L15.2535 23.6447Z" fill="#D21988"/>
<path d="M21.8851 23.6447L18.5693 20.3289L19.3983 19.5L21.8851 23.6447Z" fill="#D21988"/>
<path d="M24.3716 17.8738L19.7048 18.332L19.8193 19.4987L24.3716 17.8738Z" fill="#D21988"/>
<path d="M12.5474 17.8738L17.2142 18.332L17.0996 19.4987L12.5474 17.8738Z" fill="#D21988"/>
<path d="M18.451 13.2831L19.0041 17.9396L17.84 18.0779L18.451 13.2831Z" fill="#D21988"/>
<path d="M18.5692 20.7435C17.6535 20.7435 16.9113 20.0013 16.9113 19.0856C16.9113 18.17 17.6535 17.4277 18.5692 17.4277C19.4848 17.4277 20.2271 18.17 20.2271 19.0856C20.2271 20.0013 19.4848 20.7435 18.5692 20.7435Z" fill="#F4C30E"/>
</g>
<defs>
<clipPath id="clip0">
<rect width="75" height="75" fill="white"/>
</clipPath>
</defs>
</svg>
