<svg width="75" height="75" viewBox="0 0 75 75" fill="none" xmlns="http://www.w3.org/2000/svg">
<g clip-path="url(#clip0)">
<path d="M52.2524 75.9244C60.1139 74.3668 62.5473 69.2181 62.7812 66.8385C54.3582 61.6465 41.0216 68.1365 35.4062 72.0304C37.746 73.9774 44.3909 77.4819 52.2524 75.9244Z" fill="#42CB58"/>
<path d="M71.0288 75.9244C63.1673 74.3668 60.734 69.2181 60.5 66.8385C68.9231 61.6465 82.2596 68.1365 87.875 72.0304C85.5353 73.9774 78.8904 77.4819 71.0288 75.9244Z" fill="#42CB58"/>
<path d="M88.6297 49.5752C84.9885 48.6074 81.1225 48.531 77.4471 49.3553C76.8524 49.4886 76.374 49.9292 76.1923 50.511C75.3993 53.0493 73.4463 57.6041 68.688 61.2553C66.536 62.9066 64.1302 64.1237 61.5316 64.8783C58.933 64.1237 56.5274 62.9066 54.3752 61.2553C49.6169 57.6041 47.664 53.0492 46.871 50.511C46.6892 49.9293 46.2108 49.4886 45.6161 49.3553C41.9406 48.531 38.0748 48.6072 34.4335 49.5752C33.683 49.7544 33.125 50.43 33.125 51.2353C33.125 51.3845 33.1446 51.533 33.1832 51.6771C34.9253 58.1749 39.1791 63.0882 44.1351 65.9492C48.9892 68.7523 55.1932 69.9787 61.5317 68.4088C67.8703 69.9786 74.0742 68.7523 78.9284 65.9492C83.8844 63.0882 88.138 58.1749 89.8803 51.6771C89.9189 51.533 89.9385 51.3845 89.9385 51.2353C89.9383 50.43 89.3803 49.7544 88.6297 49.5752Z" fill="#701E70"/>
<path d="M88.6299 49.5751C84.9886 48.6073 81.1226 48.531 77.4473 49.3552C76.8525 49.4886 76.3741 49.9291 76.1924 50.511C75.3994 53.0492 73.4464 57.6041 68.6882 61.2552C66.5361 62.9066 64.1303 64.1237 61.5317 64.8783V68.4088C67.8703 69.9785 74.0742 68.7522 78.9284 65.9492C83.8844 63.0882 88.138 58.1748 89.8803 51.677C89.9189 51.533 89.9385 51.3845 89.9385 51.2353C89.9384 50.4299 89.3804 49.7544 88.6299 49.5751Z" fill="#A069A0"/>
<path d="M79.7364 37.5306C79.4925 36.6207 78.5576 36.0809 77.6475 36.3246C73.5606 37.4192 69.7878 39.5482 66.7374 42.4814C66.2982 42.9037 66.1176 43.5283 66.2637 44.1199C66.8134 46.3453 67.8188 51.8328 65.207 58.1384C64.2972 60.3347 63.0638 62.3461 61.5316 64.139C59.9994 62.3461 58.7658 60.3347 57.8562 58.1384C55.2443 51.8328 56.2498 46.3453 56.7995 44.1199C56.9456 43.5283 56.765 42.9037 56.3257 42.4814C53.2752 39.5482 49.5026 37.4192 45.4157 36.3246C44.5055 36.081 43.5707 36.6207 43.3268 37.5306C41.465 44.476 42.7781 51.2972 45.8358 56.5927C48.8933 61.8885 54.1433 66.4356 61.0891 68.2975C61.2359 68.3368 61.3842 68.3557 61.5308 68.3557C61.6774 68.3557 61.8275 68.3368 61.9743 68.2975C68.92 66.4357 74.1701 61.8885 77.2276 56.5927C80.2851 51.2971 81.5981 44.476 79.7364 37.5306Z" fill="#A069A0"/>
<path d="M79.7365 37.5306C79.4926 36.6207 78.5577 36.0809 77.6476 36.3246C73.5606 37.4192 69.7879 39.5482 66.7375 42.4814C66.2983 42.9037 66.1177 43.5283 66.2638 44.1199C66.8135 46.3453 67.8188 51.8328 65.207 58.1384C64.2973 60.3347 63.0639 62.3461 61.5317 64.139L61.5308 68.3557C61.6773 68.3557 61.8274 68.3368 61.9743 68.2975C68.9199 66.4357 74.17 61.8885 77.2276 56.5927C80.2852 51.2971 81.5982 44.476 79.7365 37.5306Z" fill="#701E70"/>
<path d="M61.5319 68.3555C61.0796 68.3555 60.6447 68.1757 60.3248 67.8558C55.8605 63.3916 52.731 56.9421 52.731 49.5215C52.731 42.1042 55.8571 35.6548 60.3248 31.1872C60.6447 30.8673 61.0785 30.6875 61.5309 30.6875C61.9832 30.6875 62.4181 30.8673 62.738 31.1872C67.2033 35.6524 70.3318 42.1009 70.3318 49.5215C70.3318 56.9438 67.2009 63.393 62.738 67.8558C62.4181 68.1758 61.9843 68.3555 61.5319 68.3555Z" fill="#701E70"/>
<path d="M61.5317 68.3555L61.5308 30.6875C61.9831 30.6875 62.418 30.8673 62.7378 31.1872C67.2032 35.6524 70.3317 42.1009 70.3317 49.5215C70.3317 56.9438 67.2008 63.393 62.7378 67.8558C62.4178 68.1758 61.984 68.3555 61.5317 68.3555Z" fill="#A069A0"/>
<path d="M11.0694 43.6443C14.1923 45.7746 19.4129 46.7764 22.8667 45.841C26.3203 44.9058 28.4246 41.9204 30.0458 38.5053C26.9229 36.375 23.5997 34.8594 20.1461 35.7947C16.6923 36.73 12.6906 40.2292 11.0694 43.6443Z" fill="#701E70"/>
<path d="M38.9201 10.2095C42.1274 10.8411 45.912 13.4499 47.4311 16.1454C48.9502 18.8406 48.3876 21.9484 47.267 25.0192C44.0598 24.3876 41.1098 23.2596 39.5907 20.5643C38.0715 17.8689 37.7996 13.2803 38.9201 10.2095Z" fill="#A069A0"/>
</g>
<defs>
<clipPath id="clip0">
<rect width="75" height="75" fill="white"/>
</clipPath>
</defs>
</svg>
