<svg width="56" height="56" viewBox="0 0 56 56" fill="none" xmlns="http://www.w3.org/2000/svg">
<path fill-rule="evenodd" clip-rule="evenodd" d="M28.303 5.15152C34.8525 5.70106 40.364 9.48672 44.512 14.6169C48.7231 19.8252 52.1784 26.222 50.6181 32.7505C49.0736 39.2122 42.9057 42.8284 37.0393 45.8811C30.8678 49.0926 23.9137 52.9114 17.6373 49.9129C11.3384 46.9037 10.0549 39.0127 8.39641 32.1973C6.68735 25.174 4.03228 17.3897 8.30898 11.5792C12.6903 5.62668 20.9675 4.53603 28.303 5.15152Z" fill="#AF1571"/>
<rect x="10" y="12" width="38" height="7" fill="#EE4A4A"/>
<rect x="10" y="19" width="38" height="25" fill="#C4D5F2"/>
<path d="M3 39L10 19H48L42.5 39H3Z" fill="#EEF4FF"/>
<path d="M21 17C20.0111 17 19.0444 16.7068 18.2222 16.1573C17.3999 15.6079 16.759 14.827 16.3806 13.9134C16.0022 12.9998 15.9031 11.9945 16.0961 11.0245C16.289 10.0546 16.7652 9.16373 17.4645 8.46447C18.1637 7.76521 19.0546 7.289 20.0246 7.09608C20.9945 6.90315 21.9998 7.00217 22.9134 7.3806C23.827 7.75904 24.6079 8.39991 25.1573 9.22215C25.7068 10.0444 26 11.0111 26 12H25C25 11.2089 24.7654 10.4355 24.3259 9.77772C23.8864 9.11992 23.2616 8.60723 22.5307 8.30448C21.7998 8.00173 20.9956 7.92252 20.2196 8.07686C19.4437 8.2312 18.731 8.61216 18.1716 9.17157C17.6122 9.73098 17.2312 10.4437 17.0769 11.2196C16.9225 11.9956 17.0017 12.7998 17.3045 13.5307C17.6072 14.2616 18.1199 14.8864 18.7777 15.3259C19.4355 15.7654 20.2089 16 21 16V17Z" fill="white"/>
<path d="M38 17C37.0111 17 36.0444 16.7068 35.2222 16.1573C34.3999 15.6079 33.759 14.827 33.3806 13.9134C33.0022 12.9998 32.9031 11.9945 33.0961 11.0245C33.289 10.0546 33.7652 9.16373 34.4645 8.46447C35.1637 7.76521 36.0546 7.289 37.0246 7.09608C37.9945 6.90315 38.9998 7.00217 39.9134 7.3806C40.827 7.75904 41.6079 8.39991 42.1573 9.22215C42.7068 10.0444 43 11.0111 43 12H42C42 11.2089 41.7654 10.4355 41.3259 9.77772C40.8864 9.11992 40.2616 8.60723 39.5307 8.30448C38.7998 8.00173 37.9956 7.92252 37.2196 8.07686C36.4437 8.2312 35.731 8.61216 35.1716 9.17157C34.6122 9.73098 34.2312 10.4437 34.0769 11.2196C33.9225 11.9956 34.0017 12.7998 34.3045 13.5307C34.6072 14.2616 35.1199 14.8864 35.7777 15.3259C36.4355 15.7654 37.2089 16 38 16V17Z" fill="white"/>
<path d="M23.5043 24.2726H21.7699L19.6094 25.6405V27.2769L21.608 26.0241H21.6591V32.9999H23.5043V24.2726Z" fill="#0A0A0A" fill-opacity="0.9"/>
<path d="M25.5785 32.9999H31.8001V31.4914H28.1353V31.4317L29.4094 30.1832C31.2035 28.5468 31.685 27.7286 31.685 26.7357C31.685 25.2229 30.4492 24.1533 28.5785 24.1533C26.7461 24.1533 25.489 25.2485 25.4933 26.9616H27.2447C27.2404 26.1263 27.7688 25.615 28.5657 25.615C29.3327 25.615 29.9038 26.0922 29.9038 26.8593C29.9038 27.5539 29.4776 28.0312 28.685 28.7939L25.5785 31.6704V32.9999Z" fill="#0A0A0A" fill-opacity="0.9"/>
</svg>
