<svg width="75" height="74" viewBox="0 0 75 74" fill="none" xmlns="http://www.w3.org/2000/svg">
<g clip-path="url(#clip0)">
<path d="M78.2014 34.7547C83.2597 37.68 86.0925 43.0085 86.0963 48.4643C90.8193 51.1955 94.0175 56.313 94.0217 62.1563C94.0204 68.025 90.8299 73.1126 86.094 75.8469C86.0834 81.313 83.2684 86.6325 78.1991 89.5592C73.1298 92.486 67.1155 92.2642 62.3764 89.5403C57.642 92.2737 51.6296 92.477 46.5561 89.5606C41.4881 86.6185 38.665 81.3068 38.6612 75.851C33.9382 73.1198 30.74 68.0022 30.7358 62.159C30.7468 56.307 33.9276 51.2026 38.6635 48.4683C38.6661 42.9885 41.4891 37.6828 46.5584 34.756C51.6277 31.8293 57.6341 32.0374 62.3811 34.775C67.1155 32.0416 73.1279 31.8382 78.2014 34.7547ZM75.5315 54.5639C75.5223 51.5245 73.9894 48.5531 71.1689 46.9339C68.339 45.3019 65.016 45.4525 62.3824 46.973C59.7534 45.4463 56.406 45.3085 53.5897 46.9345C50.7734 48.5605 49.219 51.5283 49.2282 54.5676C46.5961 56.0872 44.8026 58.8906 44.801 62.1574C44.7915 65.4105 46.5984 68.2238 49.2275 69.7505C49.2367 72.7898 50.7617 75.7476 53.5901 77.3805C56.4121 78.9988 59.743 78.8619 62.3766 77.3414C65.0041 78.869 68.3363 79.0155 71.1678 77.3807C73.9841 75.7548 75.5385 72.787 75.5293 69.7476C78.1614 68.228 79.9461 65.4094 79.9565 62.1578C79.9581 58.8911 78.1591 56.0915 75.5315 54.5639Z" fill="#EA2626"/>
<path d="M71.1673 46.9347C73.9893 48.553 75.5222 51.5245 75.5299 54.5647C78.1574 56.0923 79.9564 58.8919 79.9564 62.1578C79.9469 65.4109 78.1628 68.2271 75.5292 69.7476C75.5384 72.7869 73.9824 75.7556 71.1677 77.3807C68.3362 79.0155 65.004 78.8689 62.3765 77.3413C59.7444 78.861 56.4111 78.9973 53.5899 77.3805C50.76 75.7485 49.235 72.7907 49.2274 69.7505C46.5998 68.2228 44.7929 65.4096 44.8009 62.1574C44.8025 58.8906 46.5944 56.0881 49.228 54.5676C49.2188 51.5283 50.7733 48.5605 53.5895 46.9345C56.4058 45.3085 59.7532 45.4462 62.3808 46.9738C65.0144 45.4533 68.3374 45.3027 71.1673 46.9347ZM66.9455 59.5209C65.4866 56.9938 62.2689 56.1317 59.7419 57.5907C57.2149 59.0496 56.3527 62.2673 57.8117 64.7943C59.2707 67.3213 62.4883 68.1835 65.0153 66.7245C67.5424 65.2655 68.4045 62.0479 66.9455 59.5209Z" fill="#9C1919"/>
<path d="M59.7422 57.5908C62.2693 56.1318 65.4869 56.994 66.9459 59.521C68.4049 62.0481 67.5427 65.2657 65.0157 66.7247C62.4886 68.1837 59.271 67.3215 57.812 64.7945C56.353 62.2674 57.2152 59.0498 59.7422 57.5908Z" fill="#F4C30E"/>
<path d="M31.9661 13.4398C34.1738 14.7166 35.4102 17.0422 35.4119 19.4235C37.4733 20.6155 38.8692 22.8491 38.871 25.3995C38.8704 27.961 37.4779 30.1815 35.4109 31.3749C35.4063 33.7606 34.1776 36.0823 31.9651 37.3597C29.7525 38.6372 27.1275 38.5404 25.0591 37.3515C22.9927 38.5445 20.3686 38.6333 18.1542 37.3603C15.9422 36.0763 14.71 33.7579 14.7084 31.3767C12.647 30.1846 11.2511 27.951 11.2493 25.4007C11.2541 22.8465 12.6424 20.6187 14.7094 19.4253C14.7106 17.0335 15.9427 14.7178 18.1552 13.4404C20.3678 12.163 22.9893 12.2538 25.0612 13.4487C27.1275 12.2556 29.7517 12.1669 31.9661 13.4398ZM30.8008 22.0857C30.7968 20.7592 30.1277 19.4622 28.8967 18.7555C27.6616 18.0432 26.2112 18.109 25.0617 18.7726C23.9143 18.1062 22.4533 18.0461 21.2241 18.7558C19.9949 19.4655 19.3164 20.7608 19.3204 22.0873C18.1716 22.7506 17.3889 23.9742 17.3882 25.4C17.384 26.8198 18.1727 28.0477 19.3202 28.714C19.3242 30.0406 19.9898 31.3315 21.2242 32.0442C22.4559 32.7506 23.9097 32.6908 25.0592 32.0272C26.206 32.6939 27.6604 32.7578 28.8962 32.0443C30.1254 31.3347 30.8038 30.0393 30.7998 28.7128C31.9486 28.0495 32.7276 26.8193 32.7321 25.4002C32.7328 23.9743 31.9476 22.7524 30.8008 22.0857Z" fill="#EA2626"/>
<path d="M28.8959 18.7557C30.1276 19.4621 30.7966 20.759 30.7999 22.0859C31.9468 22.7527 32.732 23.9746 32.7319 25.4C32.7278 26.8198 31.9491 28.049 30.7997 28.7126C30.8037 30.0392 30.1246 31.3349 28.896 32.0442C27.6602 32.7577 26.2058 32.6937 25.059 32.027C23.9102 32.6903 22.4554 32.7497 21.2241 32.0441C19.9889 31.3318 19.3233 30.0408 19.32 28.7139C18.1732 28.0472 17.3845 26.8193 17.388 25.3998C17.3887 23.974 18.1708 22.7508 19.3203 22.0872C19.3163 20.7606 19.9947 19.4653 21.2239 18.7556C22.4531 18.046 23.9141 18.1061 25.0609 18.7728C26.2104 18.1092 27.6607 18.0434 28.8959 18.7557ZM27.0532 24.2491C26.4165 23.1461 25.0121 22.7698 23.9092 23.4066C22.8062 24.0434 22.4299 25.4478 23.0667 26.5507C23.7035 27.6537 25.1078 28.03 26.2108 27.3932C27.3137 26.7564 27.69 25.352 27.0532 24.2491Z" fill="#9C1919"/>
<path d="M23.9093 23.4068C25.0122 22.77 26.4166 23.1463 27.0534 24.2493C27.6902 25.3522 27.3139 26.7566 26.2109 27.3934C25.108 28.0301 23.7036 27.6538 23.0668 26.5509C22.43 25.4479 22.8063 24.0436 23.9093 23.4068Z" fill="#F4C30E"/>
</g>
<defs>
<clipPath id="clip0">
<rect width="75" height="75" fill="white"/>
</clipPath>
</defs>
</svg>
