<svg width="75" height="75" viewBox="0 0 75 75" fill="none" xmlns="http://www.w3.org/2000/svg">
<g clip-path="url(#clip0)">
<path d="M76.9582 49.1271C76.7877 49.3245 76.6136 49.5126 76.4395 49.6867C74.7526 51.3736 71.505 52.4915 66.5144 53.1037C63.0531 53.5277 60.0484 53.5372 59.9211 53.5371C59.9211 53.5371 59.92 53.5371 59.9188 53.5371C59.4235 53.5371 58.948 53.3396 58.5975 52.9892C58.2459 52.6387 58.0485 52.162 58.0496 51.6656C58.0496 51.5382 58.059 48.5336 58.483 45.0723C59.0952 40.0817 60.213 36.8341 61.9011 35.1472C62.0752 34.9732 62.2621 34.7991 62.4572 34.6297C64.4209 32.9357 66.9279 32.0538 69.5271 32.1426C72.137 32.2326 74.5926 33.2992 76.4395 35.146C78.2876 36.9953 79.3541 39.4497 79.4441 42.0594C79.5329 44.6564 78.6509 47.1657 76.9582 49.1271Z" fill="#1CC137"/>
<path d="M48.1272 34.6286C48.3246 34.7991 48.5127 34.9732 48.6868 35.1473C50.3737 36.8342 51.4917 40.0818 52.1039 45.0724C52.5279 48.5337 52.5373 51.5384 52.5372 51.6657C52.5372 51.6657 52.5372 51.6668 52.5372 51.668C52.5372 52.1633 52.3398 52.6388 51.9893 52.9892C51.6388 53.3409 51.1622 53.5383 50.6657 53.5372C50.5383 53.5372 47.5338 53.5278 44.0724 53.1038C39.0819 52.4916 35.8343 51.3738 34.1473 49.6857C33.9733 49.5116 33.7992 49.3247 33.6298 49.1296C31.9358 47.1659 31.0539 44.6589 31.1428 42.0597C31.2327 39.4498 32.2993 36.9942 34.1462 35.1473C35.9954 33.2992 38.4499 32.2327 41.0596 32.1427C43.6565 32.0538 46.1658 32.9359 48.1272 34.6286Z" fill="#1CC137"/>
<path d="M33.6284 63.46C33.7989 63.2626 33.9729 63.0745 34.147 62.9003C35.8339 61.2135 39.0816 60.0955 44.0721 59.4833C47.5335 59.0593 50.5381 59.0499 50.6654 59.05C50.6654 59.05 50.6666 59.05 50.6677 59.05C51.163 59.05 51.6385 59.2474 51.989 59.5979C52.3406 59.9484 52.5381 60.425 52.5369 60.9214C52.5369 61.0488 52.5276 64.0534 52.1035 67.5148C51.4914 72.5053 50.3735 75.7529 48.6854 77.4398C48.5113 77.6139 48.3244 77.7879 48.1294 77.9573C46.1656 79.6513 43.6586 80.5333 41.0594 80.4444C38.4497 80.3545 35.9941 79.288 34.1472 77.441C32.2991 75.5917 31.2326 73.1373 31.1426 70.5276C31.0536 67.9307 31.9356 65.4213 33.6284 63.46Z" fill="#1CC137"/>
<path d="M62.4596 77.9579C62.2622 77.7874 62.0741 77.6134 61.8999 77.4393C60.2131 75.7524 59.0951 72.5047 58.4829 67.5142C58.0589 64.0528 58.0495 61.0482 58.0496 60.9209C58.0496 60.9209 58.0496 60.9197 58.0496 60.9186C58.0496 60.4233 58.247 59.9478 58.5975 59.5973C58.948 59.2457 59.4246 59.0482 59.9211 59.0494C60.0485 59.0494 63.053 59.0587 66.5144 59.4827C71.5049 60.0949 74.7525 61.2128 76.4395 62.9009C76.6135 63.0749 76.7876 63.2619 76.957 63.4569C78.6509 65.4207 79.5329 67.9276 79.444 70.5268C79.3541 73.1366 78.2876 75.5921 76.4406 77.4391C74.5914 79.2872 72.1369 80.3537 69.5272 80.4436C66.9303 80.5327 64.4209 79.6506 62.4596 77.9579Z" fill="#1CC137"/>
<path d="M56.6168 51.071C56.2665 51.4229 55.7899 51.6203 55.2935 51.6195C54.7978 51.6195 54.322 51.4229 53.9718 51.0727C53.971 51.0718 53.9701 51.071 53.9701 51.071C53.8801 50.981 51.7621 48.8498 49.6144 46.1024C46.5184 42.1407 45.0125 39.0537 45.0133 36.6673C45.0125 36.422 45.0224 36.1659 45.0406 35.9082C45.2314 33.3218 46.3821 30.9238 48.2812 29.1503C50.1902 27.3685 52.6799 26.3872 55.2926 26.3864C57.9062 26.3864 60.3968 27.3685 62.3057 29.1503C64.2073 30.9263 65.3555 33.3218 65.5455 35.9057C65.5645 36.1659 65.5736 36.4211 65.5744 36.6665C65.5744 39.0537 64.0685 42.1407 60.9725 46.1024C58.8248 48.8498 56.7068 50.981 56.6168 51.071Z" fill="#8EE09B"/>
<path d="M50.0709 57.6164C49.9808 57.7065 47.8496 59.8245 45.1022 61.9722C41.1405 65.0682 38.0536 66.5741 35.6672 66.5732C35.421 66.5732 35.1657 66.5641 34.908 66.546C32.4415 66.3642 30.1451 65.3086 28.4004 63.564C28.3162 63.4797 28.2328 63.393 28.1502 63.3054C26.3684 61.3964 25.3862 58.9059 25.3862 56.2939C25.387 53.6795 26.3684 51.1898 28.1502 49.2808C29.9237 47.3818 32.3217 46.2311 34.9055 46.0411C35.1657 46.0221 35.4218 46.0122 35.668 46.0122C38.0536 46.0122 41.1405 47.5181 45.1022 50.6141C47.8496 52.7618 49.9808 54.8798 50.0709 54.9698L50.0725 54.9714C50.4228 55.3217 50.6194 55.7975 50.6194 56.2931C50.6202 56.7896 50.4228 57.2662 50.0709 57.6164Z" fill="#8EE09B"/>
<path d="M62.3057 83.4364C60.3968 85.2182 57.9071 86.1995 55.2943 86.2004C52.6807 86.2004 50.1902 85.2182 48.2812 83.4364C48.1936 83.3538 48.1069 83.2704 48.0226 83.1861C46.278 81.4415 45.2223 79.1451 45.0414 76.681C45.0224 76.4208 45.0134 76.1656 45.0125 75.9203C45.0125 73.533 46.5184 70.4461 49.6144 66.4844C51.7621 63.7369 53.8801 61.6057 53.9701 61.5157C54.3204 61.1638 54.797 60.9664 55.2935 60.9672C55.7891 60.9672 56.2649 61.1638 56.6151 61.5141L56.6168 61.5157C56.7068 61.6057 58.8248 63.7369 60.9725 66.4844C64.0685 70.4461 65.5744 73.533 65.5736 75.9194C65.5744 76.1648 65.5645 76.4208 65.5463 76.6786C65.3555 79.2649 64.2048 81.6629 62.3057 83.4364Z" fill="#8EE09B"/>
<path d="M75.6809 66.5451C75.4207 66.5641 75.1646 66.5741 74.9184 66.5741C72.5328 66.5741 69.4459 65.0682 65.4842 61.9722C62.7368 59.8245 60.6056 57.7065 60.5156 57.6164C60.5156 57.6164 60.5147 57.6156 60.5139 57.6148C60.1637 57.2645 59.9671 56.7887 59.9671 56.2931C59.9662 55.7967 60.1637 55.32 60.5156 54.9698C60.6056 54.8798 62.7368 52.7618 65.4842 50.6141C69.4459 47.5181 72.5328 46.0122 74.9193 46.013C75.1654 46.013 75.4207 46.0221 75.6784 46.0403C78.2647 46.2311 80.6611 47.3801 82.4363 49.2808C84.218 51.1898 85.2002 53.6803 85.2002 56.2923C85.1994 58.9067 84.218 61.3964 82.4363 63.3054C80.6628 65.2045 78.2647 66.3552 75.6809 66.5451Z" fill="#8EE09B"/>
<path d="M61.241 62.241C59.6533 63.8286 57.5411 64.7034 55.2943 64.7051C53.0458 64.7034 50.9336 63.8286 49.3459 62.241C47.7583 60.6533 46.8835 58.5411 46.8819 56.2943L46.8819 56.2926C46.8835 54.0458 47.7583 51.9336 49.3459 50.3459C50.9336 48.7583 53.0458 47.8835 55.2926 47.8819C57.5411 47.8835 59.6533 48.7583 61.241 50.3459C62.8286 51.9336 63.7034 54.0458 63.7051 56.2926C63.7034 58.5411 62.8286 60.6533 61.241 62.241Z" fill="#F4C30E"/>
<path d="M27.6266 16.3286C27.5716 16.3922 27.5155 16.4529 27.4594 16.5091C26.9153 17.0531 25.868 17.4136 24.2585 17.611C23.1422 17.7478 22.1732 17.7508 22.1322 17.7508C22.1322 17.7508 22.1318 17.7508 22.1314 17.7508C21.9717 17.7508 21.8184 17.6871 21.7053 17.5741C21.5919 17.4611 21.5283 17.3074 21.5286 17.1472C21.5286 17.1062 21.5316 16.1372 21.6684 15.0209C21.8658 13.4115 22.2263 12.3641 22.7707 11.8201C22.8269 11.7639 22.8872 11.7078 22.9501 11.6532C23.5834 11.1069 24.3919 10.8224 25.2301 10.8511C26.0718 10.8801 26.8637 11.2241 27.4594 11.8197C28.0554 12.4161 28.3993 13.2076 28.4283 14.0493C28.457 14.8868 28.1725 15.696 27.6266 16.3286Z" fill="#1CC137"/>
<path d="M18.3287 11.6525C18.3924 11.7075 18.4531 11.7636 18.5092 11.8198C19.0532 12.3638 19.4138 13.4112 19.6112 15.0206C19.748 16.1369 19.751 17.1059 19.751 17.1469C19.751 17.1469 19.751 17.1473 19.751 17.1477C19.751 17.3074 19.6873 17.4608 19.5743 17.5738C19.4612 17.6872 19.3075 17.7509 19.1474 17.7505C19.1063 17.7505 18.1374 17.7475 17.0211 17.6107C15.4116 17.4133 14.3643 17.0528 13.8202 16.5084C13.7641 16.4523 13.708 16.392 13.6533 16.3291C13.107 15.6958 12.8226 14.8873 12.8513 14.049C12.8803 13.2073 13.2243 12.4154 13.8199 11.8198C14.4163 11.2238 15.2078 10.8798 16.0494 10.8508C16.8869 10.8221 17.6962 11.1066 18.3287 11.6525Z" fill="#1CC137"/>
<path d="M13.6527 20.9509C13.7077 20.8872 13.7638 20.8265 13.82 20.7704C14.364 20.2264 15.4113 19.8658 17.0208 19.6684C18.1371 19.5316 19.1061 19.5286 19.1471 19.5286C19.1471 19.5286 19.1475 19.5286 19.1479 19.5286C19.3076 19.5286 19.4609 19.5923 19.574 19.7053C19.6874 19.8184 19.7511 19.9721 19.7507 20.1322C19.7507 20.1733 19.7477 21.1422 19.6109 22.2585C19.4135 23.868 19.053 24.9153 18.5086 25.4593C18.4524 25.5155 18.3922 25.5716 18.3293 25.6262C17.6959 26.1725 16.8875 26.457 16.0492 26.4283C15.2076 26.3993 14.4156 26.0554 13.82 25.4597C13.224 24.8633 12.8801 24.0718 12.851 23.2302C12.8223 22.3927 13.1068 21.5834 13.6527 20.9509Z" fill="#1CC137"/>
<path d="M22.9505 25.6264C22.8869 25.5714 22.8262 25.5153 22.77 25.4592C22.226 24.9151 21.8655 23.8678 21.6681 22.2583C21.5313 21.142 21.5283 20.173 21.5283 20.132C21.5283 20.132 21.5283 20.1316 21.5283 20.1312C21.5283 19.9715 21.592 19.8182 21.705 19.7051C21.818 19.5917 21.9718 19.5281 22.1319 19.5284C22.1729 19.5284 23.1419 19.5315 24.2582 19.6682C25.8676 19.8656 26.915 20.2261 27.459 20.7705C27.5152 20.8267 27.5713 20.887 27.6259 20.9499C28.1722 21.5832 28.4567 22.3917 28.428 23.2299C28.399 24.0715 28.055 24.8635 27.4594 25.4591C26.863 26.0551 26.0715 26.3991 25.2298 26.4281C24.3923 26.4568 23.5831 26.1723 22.9505 25.6264Z" fill="#1CC137"/>
<path d="M21.0664 16.9552C20.9535 17.0687 20.7998 17.1324 20.6396 17.1321C20.4798 17.1321 20.3264 17.0687 20.2134 16.9558C20.2131 16.9555 20.2129 16.9552 20.2129 16.9552C20.1838 16.9262 19.5008 16.2389 18.8082 15.3528C17.8097 14.0752 17.3241 13.0797 17.3243 12.31C17.3241 12.2309 17.3273 12.1483 17.3331 12.0652C17.3946 11.2311 17.7657 10.4578 18.3782 9.88582C18.9938 9.3112 19.7968 8.99472 20.6394 8.99445C21.4823 8.99445 22.2855 9.3112 22.9011 9.88582C23.5144 10.4586 23.8846 11.2311 23.9459 12.0644C23.952 12.1483 23.955 12.2307 23.9552 12.3098C23.9552 13.0797 23.4696 14.0752 22.4711 15.3528C21.7785 16.2389 21.0955 16.9262 21.0664 16.9552Z" fill="#8EE09B"/>
<path d="M18.9554 19.0663C18.9264 19.0953 18.239 19.7783 17.353 20.471C16.0754 21.4694 15.0798 21.9551 14.3102 21.9548C14.2308 21.9548 14.1485 21.9519 14.0654 21.946C13.2699 21.8874 12.5293 21.547 11.9667 20.9843C11.9395 20.9572 11.9126 20.9292 11.886 20.9009C11.3114 20.2853 10.9946 19.4821 10.9946 18.6398C10.9949 17.7966 11.3114 16.9937 11.886 16.378C12.4579 15.7656 13.2313 15.3945 14.0646 15.3332C14.1485 15.3271 14.2311 15.3239 14.3105 15.3239C15.0798 15.3239 16.0754 15.8095 17.353 16.808C18.239 17.5006 18.9264 18.1837 18.9554 18.2127L18.9559 18.2133C19.0689 18.3262 19.1323 18.4797 19.1323 18.6395C19.1325 18.7996 19.0689 18.9533 18.9554 19.0663Z" fill="#8EE09B"/>
<path d="M22.9011 27.3932C22.2855 27.9678 21.4825 28.2843 20.6399 28.2845C19.797 28.2845 18.9938 27.9678 18.3782 27.3932C18.35 27.3665 18.322 27.3396 18.2948 27.3124C17.7322 26.7498 17.3917 26.0092 17.3334 25.2146C17.3273 25.1306 17.3243 25.0483 17.3241 24.9692C17.3241 24.1993 17.8097 23.2038 18.8082 21.9261C19.5008 21.0401 20.1838 20.3528 20.2129 20.3237C20.3258 20.2103 20.4795 20.1466 20.6396 20.1469C20.7995 20.1469 20.9529 20.2103 21.0659 20.3232L21.0664 20.3237C21.0955 20.3528 21.7785 21.0401 22.4711 21.9261C23.4696 23.2038 23.9552 24.1993 23.955 24.9689C23.9552 25.0481 23.952 25.1306 23.9462 25.2138C23.8846 26.0478 23.5136 26.8212 22.9011 27.3932Z" fill="#8EE09B"/>
<path d="M27.2147 21.9458C27.1308 21.9519 27.0482 21.9551 26.9688 21.9551C26.1995 21.9551 25.2039 21.4694 23.9263 20.471C23.0402 19.7783 22.3529 19.0953 22.3239 19.0663C22.3239 19.0663 22.3236 19.066 22.3234 19.0657C22.2104 18.9528 22.147 18.7993 22.147 18.6395C22.1467 18.4794 22.2104 18.3257 22.3239 18.2127C22.3529 18.1837 23.0402 17.5006 23.9263 16.808C25.2039 15.8095 26.1995 15.3239 26.9691 15.3242C27.0485 15.3242 27.1308 15.3271 27.2139 15.333C28.048 15.3945 28.8208 15.7651 29.3933 16.378C29.9679 16.9937 30.2847 17.7969 30.2847 18.6392C30.2844 19.4824 29.9679 20.2853 29.3933 20.9009C28.8214 21.5134 28.048 21.8845 27.2147 21.9458Z" fill="#8EE09B"/>
<path d="M22.5577 20.5574C22.0457 21.0694 21.3645 21.3516 20.6399 21.3521C19.9148 21.3516 19.2336 21.0694 18.7216 20.5574C18.2096 20.0454 17.9274 19.3642 17.9269 18.6396L17.9269 18.6391C17.9274 17.9145 18.2096 17.2333 18.7216 16.7213C19.2336 16.2093 19.9148 15.9272 20.6394 15.9266C21.3645 15.9272 22.0457 16.2093 22.5577 16.7213C23.0697 17.2333 23.3519 17.9145 23.3524 18.6391C23.3519 19.3642 23.0697 20.0454 22.5577 20.5574Z" fill="#F4C30E"/>
</g>
<defs>
<clipPath id="clip0">
<rect width="75" height="75" fill="white"/>
</clipPath>
</defs>
</svg>
