<svg width="75" height="74" viewBox="0 0 75 74" fill="none" xmlns="http://www.w3.org/2000/svg">
<g clip-path="url(#clip0)">
<path d="M53.9708 45.9427C49.5307 42.8483 44.0259 42.0908 38.5708 42.3634C38.3013 47.7621 39.036 53.2964 42.1501 57.7634L55.6935 59.4825L53.9708 45.9427Z" fill="#EA2626"/>
<path d="M80.7333 42.3631C75.3051 42.0918 69.7919 42.8341 65.3334 45.9424L63.6143 59.4853L77.2687 57.7631C80.3824 53.2965 81.0028 47.7627 80.7333 42.3631Z" fill="#F16E6E"/>
<path d="M66.013 68.2237C63.8811 72.2806 60.9246 74.9283 60.7867 75.0312L59.6522 76.0627L58.5174 75.0312C58.3799 74.9283 55.4229 72.2806 53.2915 68.2237L59.6522 61.0034L66.013 68.2237Z" fill="#1CC137"/>
<path d="M88.9917 63.4447C84.6939 68.1893 79.6628 72.0403 73.405 72.0403C67.1817 72.0403 61.9554 67.2953 59.6521 65.1638C57.3487 67.2953 52.1224 72.0403 45.8992 72.0403C39.6414 72.0403 34.6103 68.1893 30.3125 63.4447C34.6103 58.6997 39.6414 54.8491 45.8992 54.8491C52.1224 54.8491 57.3487 59.5937 59.6521 61.7256C61.9554 59.5937 67.1817 54.8491 73.405 54.8491C79.6628 54.8491 84.6939 58.6997 88.9917 63.4447Z" fill="#EE4A4A"/>
<path d="M88.9919 63.4447C84.6941 68.1893 79.663 72.0403 73.4053 72.0403C67.182 72.0403 61.9557 67.2953 59.6523 65.1638V61.7256C61.9557 59.5937 67.182 54.8491 73.4053 54.8491C79.663 54.8491 84.6941 58.6997 88.9919 63.4447Z" fill="#EA2626"/>
<path d="M59.6522 30.7812C54.9076 35.079 51.0566 43.4338 51.0566 49.6915C51.0566 55.9488 54.9076 60.8658 59.6522 65.1636C64.3968 60.8658 68.2478 55.9488 68.2478 49.6915C68.2478 43.4338 64.3968 35.079 59.6522 30.7812Z" fill="#F59393"/>
<path d="M11.7102 51.831C14.9025 52.5341 19.4144 51.6555 21.8844 49.7921C24.3542 47.9287 25.0807 44.855 25.281 41.5923C22.0887 40.8893 18.9337 40.7441 16.4639 42.6075C13.9939 44.471 11.9105 48.5683 11.7102 51.831Z" fill="#F59393"/>
<path d="M38.9201 10.2095C42.1274 10.8411 45.912 13.4499 47.4311 16.1454C48.9502 18.8406 48.3876 21.9484 47.267 25.0192C44.0598 24.3876 41.1098 23.2596 39.5907 20.5643C38.0715 17.8689 37.7996 13.2803 38.9201 10.2095Z" fill="#EA2626"/>
</g>
<defs>
<clipPath id="clip0">
<rect width="75" height="75" fill="white"/>
</clipPath>
</defs>
</svg>
