<svg width="75" height="75" viewBox="0 0 75 75" fill="none" xmlns="http://www.w3.org/2000/svg">
<g clip-path="url(#clip0)">
<path d="M84.2977 66.4743C85.8804 62.6514 84.7145 58.2443 81.5219 55.7006L71.7684 51.6138L58.5367 55.7006L58.4854 55.7519L65.9264 67.2798L74.8351 72.1017C78.8199 72.5279 82.714 70.2964 84.2977 66.4743Z" fill="#F4C30E"/>
<path d="M81.5218 55.7004C84.6737 53.1975 85.8989 48.8988 84.2976 45.0284C82.757 41.3141 78.9778 38.9861 74.8349 39.4031L64.1474 46.0034L58.5366 55.7004H81.5218Z" fill="#F8D75E"/>
<path d="M69.2072 29.7036C65.3723 28.1119 60.968 29.2983 58.4335 32.4793L54.3467 42.4692L58.4335 55.7004H58.5362L74.8346 39.403C75.2573 35.3853 73.0104 31.2793 69.2072 29.7036Z" fill="#F4C30E"/>
<path d="M47.7618 29.7037C43.9125 31.3002 41.719 35.4359 42.1365 39.4032L48.2168 49.5703L58.4338 55.7005V32.4795C55.9234 29.3178 51.6209 28.1112 47.7618 29.7037Z" fill="#F8D75E"/>
<path d="M32.672 45.0286C31.0896 48.8533 32.2545 53.1562 35.4478 55.7005L48.1318 59.7873L58.4339 55.7005L42.1366 39.4032C38.1456 38.986 34.2611 41.1967 32.672 45.0286Z" fill="#F4C30E"/>
<path d="M58.4338 55.7002H35.4476C32.2907 58.2068 31.071 62.6071 32.6719 66.4739C34.282 70.3599 38.2361 72.5296 42.1346 72.1013L51.8865 66.4366L58.434 55.803V55.7002H58.4338Z" fill="#F8D75E"/>
<path d="M42.1346 72.1015C41.7223 76.0928 43.9291 79.9746 47.762 81.5642C51.5856 83.1499 55.8912 81.9798 58.434 78.7884L62.5208 69.0352L58.434 55.8032L42.1346 72.1015Z" fill="#F4C30E"/>
<path d="M58.4336 55.8033V78.7885C60.95 81.9574 65.3633 83.1622 69.2073 81.5643C73.0616 79.9674 75.252 76.0569 74.8347 72.1016L58.485 55.752L58.4336 55.8033Z" fill="#F8D75E"/>
<path d="M58.4341 70.004C66.3339 70.004 72.7379 63.6 72.7379 55.7003C72.7379 47.8005 66.3339 41.3965 58.4341 41.3965C50.5344 41.3965 44.1304 47.8005 44.1304 55.7003C44.1304 63.6 50.5344 70.004 58.4341 70.004Z" fill="#EB5C2F"/>
<path d="M72.7374 55.7003C72.7374 47.814 66.3199 41.3965 58.4336 41.3965V70.004C66.3199 70.004 72.7374 63.5865 72.7374 55.7003Z" fill="#D14519"/>
<path d="M28.6297 35.7735C29.2536 34.2664 28.794 32.529 27.5354 31.5262L23.6902 29.915L18.4739 31.5262L18.4536 31.5464L21.3871 36.0911L24.8992 37.992C26.4701 38.1601 28.0053 37.2803 28.6297 35.7735Z" fill="#F4C30E"/>
<path d="M27.5356 31.5259C28.7782 30.5392 29.2612 28.8445 28.6299 27.3187C28.0226 25.8544 26.5327 24.9366 24.8994 25.101L20.6861 27.7031L18.4741 31.5259H27.5356Z" fill="#F8D75E"/>
<path d="M22.6808 21.2774C21.1689 20.6499 19.4326 21.1176 18.4334 22.3717L16.8223 26.31L18.4334 31.5261H18.4739L24.8993 25.1012C25.0659 23.5173 24.1801 21.8986 22.6808 21.2774Z" fill="#F4C30E"/>
<path d="M14.2264 21.2776C12.7089 21.9069 11.8441 23.5373 12.0087 25.1014L14.4058 29.1096L18.4336 31.5263V22.3718C17.444 21.1254 15.7477 20.6497 14.2264 21.2776Z" fill="#F8D75E"/>
<path d="M8.27716 27.319C7.65333 28.8268 8.11256 30.5232 9.37145 31.5263L14.3719 33.1374L18.4333 31.5263L12.0084 25.1013C10.435 24.9368 8.90363 25.8084 8.27716 27.319Z" fill="#F4C30E"/>
<path d="M18.4334 31.5264H9.37149C8.12694 32.5145 7.64606 34.2493 8.2772 35.7737C8.91194 37.3057 10.4708 38.1611 12.0077 37.9922L15.8522 35.759L18.4334 31.5669V31.5264H18.4334Z" fill="#F8D75E"/>
<path d="M12.0077 37.9922C11.8451 39.5657 12.7151 41.096 14.2262 41.7227C15.7336 42.3478 17.4309 41.8865 18.4334 40.6284L20.0445 36.7834L18.4334 31.5669L12.0077 37.9922Z" fill="#F4C30E"/>
<path d="M18.4336 31.5666V40.6281C19.4256 41.8774 21.1655 42.3524 22.6809 41.7224C24.2004 41.0929 25.0639 39.5513 24.8994 37.9919L18.4538 31.5464L18.4336 31.5666Z" fill="#F8D75E"/>
<path d="M18.4334 37.1652C21.5478 37.1652 24.0724 34.6406 24.0724 31.5262C24.0724 28.4119 21.5478 25.8872 18.4334 25.8872C15.3191 25.8872 12.7944 28.4119 12.7944 31.5262C12.7944 34.6406 15.3191 37.1652 18.4334 37.1652Z" fill="#EB5C2F"/>
<path d="M24.0726 31.5262C24.0726 28.4172 21.5426 25.8872 18.4336 25.8872V37.1652C21.5426 37.1652 24.0726 34.6352 24.0726 31.5262Z" fill="#D14519"/>
<path d="M45.7615 15.7387C46.0883 14.9492 45.8475 14.0391 45.1883 13.5139L43.1741 12.6699L40.4418 13.5139L40.4312 13.5245L41.9678 15.905L43.8074 16.9007C44.6303 16.9887 45.4344 16.5279 45.7615 15.7387Z" fill="#F4C30E"/>
<path d="M45.1884 13.5136C45.8393 12.9967 46.0923 12.109 45.7616 11.3098C45.4435 10.5427 44.6631 10.062 43.8075 10.1481L41.6005 11.5111L40.4419 13.5136H45.1884Z" fill="#F8D75E"/>
<path d="M42.6454 8.14529C41.8535 7.81661 40.944 8.0616 40.4206 8.71849L39.5767 10.7814L40.4206 13.5137H40.4418L43.8075 10.1483C43.8948 9.31858 43.4308 8.47068 42.6454 8.14529Z" fill="#F4C30E"/>
<path d="M38.217 8.14511C37.4221 8.47477 36.9691 9.32881 37.0554 10.1481L38.311 12.2476L40.4208 13.5135V8.71831C39.9024 8.06541 39.0139 7.81625 38.217 8.14511Z" fill="#F8D75E"/>
<path d="M35.101 11.3097C34.7742 12.0995 35.0148 12.9881 35.6742 13.5135L38.2935 14.3574L40.4209 13.5135L37.0554 10.1481C36.2313 10.0619 35.4291 10.5184 35.101 11.3097Z" fill="#F4C30E"/>
<path d="M40.4207 13.5137H35.674C35.0221 14.0313 34.7702 14.94 35.1008 15.7385C35.4332 16.5409 36.2498 16.989 37.0548 16.9005L39.0686 15.7308L40.4207 13.5349V13.5137H40.4207Z" fill="#F8D75E"/>
<path d="M37.0546 16.9008C36.9694 17.725 37.4252 18.5266 38.2167 18.8549C39.0062 19.1823 39.8954 18.9407 40.4204 18.2817L41.2644 16.2676L40.4204 13.5352L37.0546 16.9008Z" fill="#F4C30E"/>
<path d="M40.4209 13.535V18.2815C40.9405 18.9359 41.8519 19.1847 42.6457 18.8547C43.4416 18.525 43.8939 17.7174 43.8078 16.9007L40.4315 13.5244L40.4209 13.535Z" fill="#F8D75E"/>
<path d="M40.4206 16.4676C42.0519 16.4676 43.3743 15.1451 43.3743 13.5138C43.3743 11.8825 42.0519 10.5601 40.4206 10.5601C38.7892 10.5601 37.4668 11.8825 37.4668 13.5138C37.4668 15.1451 38.7892 16.4676 40.4206 16.4676Z" fill="#EB5C2F"/>
<path d="M43.3747 13.5138C43.3747 11.8853 42.0494 10.5601 40.4209 10.5601V16.4676C42.0494 16.4676 43.3747 15.1424 43.3747 13.5138Z" fill="#D14519"/>
</g>
<defs>
<clipPath id="clip0">
<rect width="75" height="75" fill="white"/>
</clipPath>
</defs>
</svg>
