<svg width="75" height="74" viewBox="0 0 75 74" fill="none" xmlns="http://www.w3.org/2000/svg">
<g clip-path="url(#clip0_2510_6030)">
<path fill-rule="evenodd" clip-rule="evenodd" d="M62.9999 58L63 58.0001C58.0693 58.4362 46.3765 57.4769 39.0509 50.1512C31.7253 42.8256 34.5227 34.8895 36.8371 31.8372L36.837 31.8371C39.8893 29.5227 47.8254 26.7252 55.1511 34.0509C62.4767 41.3765 63.436 53.0693 62.9999 58Z" fill="#31DAC8"/>
<path fill-rule="evenodd" clip-rule="evenodd" d="M36.8964 84.2221L63.0593 58.0591C63.4954 62.9898 62.5361 74.6827 55.2105 82.0083C47.8848 89.3339 39.9487 86.5365 36.8964 84.2221ZM36.8964 84.222L63.0593 58.059C58.1286 57.623 46.4358 58.5823 39.1102 65.9079C31.7845 73.2335 34.582 81.1696 36.8964 84.222Z" fill="#31DAC8"/>
<path fill-rule="evenodd" clip-rule="evenodd" d="M89.163 84.1629L89.163 84.1629C86.1106 86.4773 78.1745 89.2747 70.8489 81.9491C63.5233 74.6235 62.564 62.9307 63 58C67.9308 57.5639 79.6236 58.5232 86.9492 65.8489C94.2748 73.1745 91.4774 81.1106 89.163 84.1629Z" fill="#31DAC8"/>
<path fill-rule="evenodd" clip-rule="evenodd" d="M63.0592 58.0591C63.0591 58.0591 63.0591 58.0591 63.0591 58.0591L63.0592 58.0591C62.6231 53.1283 63.5825 41.4356 70.908 34.11C78.2336 26.7844 86.1697 29.5818 89.2221 31.8962L89.2221 31.8962C91.5365 34.9485 94.3339 42.8846 87.0083 50.2102C79.6827 57.5358 67.99 58.4951 63.0592 58.0591L63.0592 58.0592C63.0592 58.0591 63.0592 58.0591 63.0592 58.0591Z" fill="#31DAC8"/>
<path fill-rule="evenodd" clip-rule="evenodd" d="M62.9999 95L62.9999 58C59.205 61.1782 51.6153 70.1246 51.6153 80.4846C51.6153 90.8446 59.205 94.4782 62.9999 95ZM62.9999 95L62.9999 58C66.7948 61.1782 74.3845 70.1246 74.3845 80.4846C74.3845 90.8446 66.7948 94.4782 62.9999 95Z" fill="#19B09E"/>
<path fill-rule="evenodd" clip-rule="evenodd" d="M26 58L63 58C59.8218 54.2051 50.8754 46.6154 40.5154 46.6154C30.1554 46.6154 26.5218 54.2051 26 58ZM26 58.0002L63 58.0002C59.8218 61.795 50.8754 69.3848 40.5154 69.3848C30.1554 69.3848 26.5218 61.795 26 58.0002Z" fill="#19B09E"/>
<path fill-rule="evenodd" clip-rule="evenodd" d="M63.0001 21V58C59.2052 54.8218 51.6155 45.8754 51.6155 35.5154C51.6155 25.1554 59.2052 21.5218 63.0001 21ZM63.0001 21V58C66.795 54.8218 74.3847 45.8754 74.3847 35.5154C74.3847 25.1554 66.795 21.5218 63.0001 21Z" fill="#19B09E"/>
<path fill-rule="evenodd" clip-rule="evenodd" d="M100 57.9998L63 57.9998C66.1782 54.205 75.1246 46.6152 85.4846 46.6152C95.8446 46.6152 99.4782 54.205 100 57.9998ZM100 58L63 58C66.1782 61.7949 75.1246 69.3846 85.4846 69.3846C95.8446 69.3846 99.4782 61.7949 100 58Z" fill="#19B09E"/>
<path fill-rule="evenodd" clip-rule="evenodd" d="M58.7307 58.1094L48.1999 58.1094C49.1045 57.0293 51.6508 54.8691 54.5994 54.8691C57.548 54.8691 58.5822 57.0293 58.7307 58.1094ZM58.7307 58.1094L48.1999 58.1094C49.1045 59.1895 51.6508 61.3497 54.5994 61.3497C57.548 61.3497 58.5822 59.1895 58.7307 58.1094Z" fill="#41E0CF"/>
<path fill-rule="evenodd" clip-rule="evenodd" d="M63 62.3784L63 72.9092C64.0801 72.0046 66.2403 69.4583 66.2403 66.5097C66.2403 63.5611 64.0801 62.5269 63 62.3784ZM63 62.3787L63 72.9094C61.9199 72.0049 59.7598 69.4586 59.7598 66.51C59.7598 63.5614 61.9199 62.5272 63 62.3787Z" fill="#41E0CF"/>
<path fill-rule="evenodd" clip-rule="evenodd" d="M67.2693 58.1094L77.8001 58.1094C76.8955 57.0293 74.3492 54.8691 71.4006 54.8691C68.452 54.8691 67.4178 57.0293 67.2693 58.1094ZM67.2693 58.1094L77.8001 58.1094C76.8955 59.1895 74.3492 61.3497 71.4006 61.3497C68.452 61.3497 67.4178 59.1895 67.2693 58.1094Z" fill="#41E0CF"/>
<path fill-rule="evenodd" clip-rule="evenodd" d="M63 53.8403L63 43.3096C64.0801 44.2141 66.2403 46.7604 66.2403 49.709C66.2403 52.6576 64.0801 53.6918 63 53.8403ZM63 53.8401L63 43.3093C61.9199 44.2139 59.7598 46.7602 59.7598 49.7088C59.7598 52.6574 61.9199 53.6916 63 53.8401Z" fill="#41E0CF"/>
<circle cx="62.9999" cy="58.0002" r="4.26923" fill="#F4C30E"/>
<path fill-rule="evenodd" clip-rule="evenodd" d="M18.7825 10.7827L25.5 17.5002C25.612 16.2342 25.3657 13.232 23.4848 11.3511C21.6039 9.47016 19.5662 10.1884 18.7825 10.7827ZM18.7826 10.7827L25.5001 17.5003C24.2341 17.6122 21.2319 17.3659 19.351 15.485C17.4701 13.6041 18.1883 11.5664 18.7826 10.7827Z" fill="#31DAC8"/>
<path fill-rule="evenodd" clip-rule="evenodd" d="M25.5153 17.5151L25.5158 17.5146C24.2498 17.4026 21.2475 17.6489 19.3666 19.5298C17.4859 21.4106 18.2039 23.4481 18.7981 24.2319L18.7977 24.2323C19.5814 24.8265 21.6191 25.5448 23.5 23.6639C25.3807 21.7831 25.6271 18.7813 25.5153 17.5151Z" fill="#31DAC8"/>
<path fill-rule="evenodd" clip-rule="evenodd" d="M32.2175 24.2173L25.5 17.4998C25.388 18.7658 25.6343 21.768 27.5152 23.6489C29.3961 25.5298 31.4338 24.8116 32.2175 24.2173ZM32.2174 24.2173L25.4999 17.4998C26.7659 17.3878 29.7681 17.6341 31.649 19.515C33.5299 21.3959 32.8117 23.4336 32.2174 24.2173Z" fill="#31DAC8"/>
<path fill-rule="evenodd" clip-rule="evenodd" d="M25.5152 17.5153L25.5152 17.5154C25.5152 17.5154 25.5151 17.5153 25.5151 17.5153C25.5151 17.5153 25.5151 17.5153 25.5151 17.5153L25.5151 17.5153C25.4032 16.2493 25.6495 13.2471 27.5304 11.3663C29.4113 9.48538 31.4489 10.2036 32.2326 10.7978L32.2326 10.7978C32.2326 10.7978 32.2326 10.7978 32.2326 10.7978C32.2326 10.7978 32.2327 10.7978 32.2327 10.7979L32.2327 10.7979C32.8269 11.5816 33.5451 13.6192 31.6642 15.5001C29.7834 17.381 26.7812 17.6273 25.5152 17.5153Z" fill="#31DAC8"/>
<path fill-rule="evenodd" clip-rule="evenodd" d="M25.5 27L25.5 17.5C26.4744 18.316 28.4231 20.6131 28.4231 23.2731C28.4231 25.9331 26.4744 26.866 25.5 27ZM25.5 27L25.5 17.5C24.5257 18.316 22.5769 20.6131 22.5769 23.2731C22.5769 25.9331 24.5257 26.866 25.5 27Z" fill="#19B09E"/>
<path fill-rule="evenodd" clip-rule="evenodd" d="M25.4999 17.4999C25.4999 17.4999 25.5 17.4998 25.5 17.4998L25.4998 17.4998C24.6835 16.5253 22.3867 14.577 19.7269 14.577C17.0672 14.577 16.1342 16.5253 16 17.4998L16 17.4998C16 17.4998 16 17.4999 16 17.4999C16 17.5 16 17.5 16 17.5001L16 17.5001C16.1342 18.4745 17.0672 20.4229 19.7269 20.4229C22.3867 20.4229 24.6835 18.4745 25.4998 17.5001L25.5 17.5001C25.5 17.5 25.4999 17.5 25.4999 17.4999Z" fill="#19B09E"/>
<path fill-rule="evenodd" clip-rule="evenodd" d="M25.5 8V17.5C24.5256 16.684 22.5769 14.3869 22.5769 11.7269C22.5769 9.06692 24.5256 8.13397 25.5 8ZM25.5 8V17.5C26.4743 16.684 28.4231 14.3869 28.4231 11.7269C28.4231 9.06692 26.4743 8.13397 25.5 8Z" fill="#19B09E"/>
<path fill-rule="evenodd" clip-rule="evenodd" d="M25.5001 17.5001C25.5001 17.5001 25.5 17.5002 25.5 17.5002L25.5002 17.5002C26.3165 18.4747 28.6133 20.423 31.2731 20.423C33.9328 20.423 34.8658 18.4747 35 17.5002L35 17.5002C35 17.5002 35 17.5001 35 17.5001C35 17.5 35 17.5 35 17.4999L35 17.4999C34.8658 16.5255 33.9328 14.5771 31.2731 14.5771C28.6133 14.5771 26.3165 16.5255 25.5002 17.4999L25.5 17.4999C25.5 17.5 25.5001 17.5 25.5001 17.5001Z" fill="#19B09E"/>
<path fill-rule="evenodd" clip-rule="evenodd" d="M21.7 17.5282C21.7 17.5282 21.7 17.5282 21.7 17.5282L21.7 17.5282C21.9323 17.8056 22.586 18.3601 23.3431 18.3601C24.1001 18.3601 24.3656 17.8056 24.4038 17.5282L24.4038 17.5282C24.4038 17.5282 24.4038 17.5282 24.4038 17.5282C24.4038 17.5282 24.4038 17.5282 24.4038 17.5282L24.4038 17.5282C24.3656 17.2509 24.1001 16.6963 23.3431 16.6963C22.586 16.6963 21.9323 17.2509 21.7 17.5282L21.7 17.5282C21.7 17.5282 21.7 17.5282 21.7 17.5282Z" fill="#41E0CF"/>
<path fill-rule="evenodd" clip-rule="evenodd" d="M25.4999 18.6245V18.6245C25.2226 18.6626 24.668 18.9282 24.668 19.6853C24.668 20.4423 25.2226 21.0961 25.4999 21.3283V21.3284C25.7772 21.0961 26.3319 20.4423 26.3319 19.6853C26.3319 18.9282 25.7772 18.6627 25.4999 18.6245Z" fill="#41E0CF"/>
<path fill-rule="evenodd" clip-rule="evenodd" d="M29.3 17.5282C29.3 17.5282 29.3 17.5282 29.3 17.5282L29.3 17.5282C29.0677 17.8056 28.414 18.3601 27.6569 18.3601C26.8999 18.3601 26.6344 17.8056 26.5962 17.5282L26.5962 17.5282C26.5962 17.5282 26.5962 17.5282 26.5962 17.5282C26.5962 17.5282 26.5962 17.5282 26.5962 17.5282L26.5962 17.5282C26.6344 17.2509 26.8999 16.6963 27.6569 16.6963C28.414 16.6963 29.0677 17.2509 29.3 17.5282L29.3 17.5282C29.3 17.5282 29.3 17.5282 29.3 17.5282Z" fill="#41E0CF"/>
<path fill-rule="evenodd" clip-rule="evenodd" d="M25.4999 13.7283L25.4999 13.7278C25.2226 13.9601 24.668 14.6139 24.668 15.3709C24.668 16.128 25.2226 16.3935 25.4999 16.4317L25.4999 16.4321C25.7772 16.394 26.3319 16.1285 26.3319 15.3714C26.3319 14.6143 25.7772 13.9606 25.4999 13.7283Z" fill="#41E0CF"/>
<circle cx="25.5" cy="17.5" r="1.09615" fill="#D27927"/>
</g>
<defs>
<clipPath id="clip0_2510_6030">
<rect width="75" height="75" fill="white" transform="translate(0 -1)"/>
</clipPath>
</defs>
</svg>
