<svg width="75" height="74" viewBox="0 0 75 74" fill="none" xmlns="http://www.w3.org/2000/svg">
<g clip-path="url(#clip0)">
<path d="M63.0017 61.9454C60.1014 61.9454 57.7502 59.5942 57.7502 56.6938H54.2492C54.2492 59.5942 51.898 61.9454 48.9976 61.9454C45.1305 61.9454 41.9956 65.0803 41.9956 68.9474C41.9956 71.0589 42.2586 73.0802 42.7384 74.9466C44.3993 79.3636 48.6648 82.5069 53.6657 82.5069C54.4651 82.5069 55.2456 82.4264 55.9997 82.2734C56.7538 82.4264 57.5343 82.5069 58.3337 82.5069C63.3347 82.5069 67.6001 79.3636 69.261 74.9466C69.7406 73.0802 70.0038 71.0589 70.0038 68.9474C70.0038 65.0803 66.8688 61.9454 63.0017 61.9454Z" fill="#4562B5"/>
<path d="M69.2612 74.9463C75.9205 75.3636 81.6126 72.7281 83.1579 67.9719C83.405 67.2117 83.5341 66.433 83.5544 65.6465C84.0003 64.9985 84.3535 64.2926 84.6005 63.5323C86.1458 58.7761 83.09 53.2982 77.4572 49.7217L69.2612 74.9463Z" fill="#3B7ACE"/>
<path d="M63.1587 51.6566C62.2624 54.4149 59.2997 55.9246 56.5414 55.0283L55.4595 58.358C58.2178 59.2543 59.7274 62.217 58.8312 64.9753C57.6362 68.6531 59.6489 72.6034 63.3267 73.7983C65.3348 74.4508 67.3384 74.8252 69.2618 74.9457C73.9758 74.731 78.2834 71.6457 79.8288 66.8895C80.0758 66.1294 80.2404 65.3622 80.328 64.5977C80.7066 63.9277 81.0243 63.2102 81.2713 62.45C82.8167 57.6939 81.1453 52.6657 77.4578 49.7212C75.831 48.6883 73.9899 47.8135 71.9818 47.1611C68.304 45.9659 64.3537 47.9787 63.1587 51.6566Z" fill="#3093E6"/>
<path d="M77.4573 49.7216C79.9121 43.5172 79.1645 37.2892 75.1186 34.3498C74.472 33.8799 73.7713 33.5164 73.0295 33.2542C72.551 32.6298 71.9888 32.0757 71.3421 31.6059C67.2963 28.6664 61.1421 29.8799 56 34.1319L77.4573 49.7216Z" fill="#50499C"/>
<path d="M53.4215 48.3294C55.7679 50.0341 56.2881 53.3183 54.5833 55.6647L57.4157 57.7226C59.1205 55.3762 62.4046 54.856 64.751 56.5608C67.8795 58.8338 72.2585 58.1404 74.5315 55.0118C75.7726 53.3036 76.7477 51.5137 77.4567 49.7218C78.7092 45.1723 77.106 40.1219 73.0601 37.1825C72.4135 36.7126 71.7346 36.319 71.0347 35.9995C70.5144 35.4324 69.9303 34.9086 69.2837 34.4387C65.2379 31.4993 59.9393 31.5351 55.9994 34.1323C54.5143 35.3602 53.1134 36.8409 51.8723 38.549C49.5994 41.6775 50.293 46.0564 53.4215 48.3294Z" fill="#4562B5"/>
<path d="M34.5427 49.7217C28.9099 53.2982 25.8541 58.7761 27.3994 63.5323C27.6465 64.2925 27.9996 64.9984 28.4455 65.6465C28.4657 66.433 28.5949 67.2116 28.842 67.9719C30.3873 72.728 36.0794 75.3636 42.7387 74.9463L34.5427 49.7217Z" fill="#3B7ACE"/>
<path d="M53.169 64.9757C52.2727 62.2174 53.7823 59.2547 56.5407 58.3585L55.4588 55.0288C52.7005 55.925 49.7378 54.4155 48.8415 51.657C47.6465 47.9792 43.6963 45.9665 40.0185 47.1615C38.0104 47.814 36.1693 48.6888 34.5425 49.7217C30.855 52.6661 29.1836 57.6943 30.729 62.4504C30.976 63.2106 31.2937 63.9281 31.6723 64.5981C31.7598 65.3626 31.9245 66.1298 32.1715 66.89C33.7169 71.6461 38.0245 74.7316 42.7385 74.9462C44.6618 74.8256 46.6654 74.4512 48.6736 73.7988C52.3513 72.6039 54.364 68.6537 53.169 64.9757Z" fill="#3093E6"/>
<path d="M55.9999 34.1319C50.8578 29.88 44.7037 28.6664 40.6579 31.6059C40.0112 32.0757 39.449 32.6298 38.9704 33.2542C38.2287 33.5164 37.5281 33.8799 36.8813 34.3497C32.8355 37.2892 32.0878 43.5172 34.5426 49.7216L55.9999 34.1319Z" fill="#4562B5"/>
<path d="M47.2482 56.5605C49.5946 54.8557 52.8788 55.3758 54.5836 57.7222L57.4159 55.6643C55.7111 53.3179 56.2313 50.0338 58.5776 48.329C61.7062 46.056 62.3997 41.6771 60.1267 38.5485C58.8856 36.8404 57.4847 35.3597 55.9996 34.1318C52.0597 31.5346 46.7612 31.4988 42.7154 34.4382C42.0687 34.9081 41.4845 35.4319 40.9644 35.999C40.2643 36.3185 39.5856 36.7121 38.9389 37.182C34.8932 40.1215 33.2899 45.1718 34.5425 49.7213C35.2514 51.5132 36.2267 53.3031 37.4677 55.0113C39.7408 58.1399 44.1196 58.8335 47.2482 56.5605Z" fill="#3B7ACE"/>
<path d="M56.0006 59.5242C57.564 59.5242 58.8313 58.2568 58.8313 56.6935C58.8313 55.1301 57.564 53.8628 56.0006 53.8628C54.4373 53.8628 53.1699 55.1301 53.1699 56.6935C53.1699 58.2568 54.4373 59.5242 56.0006 59.5242Z" fill="#FF8229"/>
<path d="M55.9995 61.4195C56.9663 61.4195 57.7501 60.6357 57.7501 59.669C57.7501 58.7022 56.9663 57.9185 55.9995 57.9185C55.0328 57.9185 54.249 58.7022 54.249 59.669C54.249 60.6357 55.0328 61.4195 55.9995 61.4195Z" fill="#FFE852"/>
<path d="M58.8301 59.3633C59.7969 59.3633 60.5806 58.5796 60.5806 57.6128C60.5806 56.646 59.7969 55.8623 58.8301 55.8623C57.8633 55.8623 57.0796 56.646 57.0796 57.6128C57.0796 58.5796 57.8633 59.3633 58.8301 59.3633Z" fill="#FFE852"/>
<path d="M57.7495 56.0362C58.7163 56.0362 59.5001 55.2525 59.5001 54.2857C59.5001 53.3189 58.7163 52.5352 57.7495 52.5352C56.7828 52.5352 55.999 53.3189 55.999 54.2857C55.999 55.2525 56.7828 56.0362 57.7495 56.0362Z" fill="#FFE852"/>
<path d="M54.251 56.0362C55.2178 56.0362 56.0015 55.2525 56.0015 54.2857C56.0015 53.3189 55.2178 52.5352 54.251 52.5352C53.2842 52.5352 52.5005 53.3189 52.5005 54.2857C52.5005 55.2525 53.2842 56.0362 54.251 56.0362Z" fill="#FFE852"/>
<path d="M53.1695 59.3633C54.1362 59.3633 54.92 58.5796 54.92 57.6128C54.92 56.646 54.1362 55.8623 53.1695 55.8623C52.2027 55.8623 51.4189 56.646 51.4189 57.6128C51.4189 58.5796 52.2027 59.3633 53.1695 59.3633Z" fill="#FFE852"/>
<path d="M16.2412 26.2202C16.8998 28.7828 18.5913 30.6066 20.5744 30.6066C20.8914 30.6066 21.201 30.5599 21.5 30.4712C21.799 30.5599 22.1086 30.6066 22.4256 30.6066C24.4087 30.6066 26.1002 28.7828 26.7588 26.2202H16.2412Z" fill="#50499C"/>
<path d="M24.2763 21.0644C23.1262 21.0644 22.1938 20.1321 22.1938 18.9819H20.8055C20.8055 20.1321 19.8731 21.0644 18.723 21.0644C17.1895 21.0644 15.9463 22.3076 15.9463 23.8411C15.9463 24.6784 16.0506 25.48 16.2408 26.2201C16.8995 27.9716 18.591 29.2181 20.5741 29.2181C20.8911 29.2181 21.2006 29.1862 21.4996 29.1255C21.7987 29.1862 22.1082 29.2181 22.4252 29.2181C24.4083 29.2181 26.0998 27.9716 26.7584 26.2201C26.9486 25.48 27.053 24.6784 27.053 23.8411C27.053 22.3076 25.8098 21.0644 24.2763 21.0644Z" fill="#4562B5"/>
<path d="M26.7588 26.2201C29.3995 26.3856 31.6567 25.3405 32.2696 23.4544C32.3675 23.153 32.4187 22.8442 32.4268 22.5323C32.6036 22.2753 32.7437 21.9954 32.8416 21.6939C33.4544 19.8078 32.2426 17.6356 30.0089 16.2173L26.7588 26.2201Z" fill="#3B7ACE"/>
<path d="M24.3388 16.9843C23.9834 18.0782 22.8085 18.6768 21.7147 18.3214L21.2856 19.6418C22.3795 19.9972 22.9781 21.1721 22.6227 22.2659C22.1488 23.7243 22.947 25.2908 24.4054 25.7647C25.2017 26.0234 25.9963 26.1719 26.759 26.2197C28.6283 26.1345 30.3365 24.911 30.9493 23.025C31.0473 22.7235 31.1126 22.4193 31.1473 22.1161C31.2974 21.8504 31.4234 21.5659 31.5214 21.2645C32.1342 19.3784 31.4714 17.3845 30.0091 16.2169C29.364 15.8073 28.6339 15.4604 27.8376 15.2016C26.3792 14.7277 24.8127 15.5258 24.3388 16.9843Z" fill="#3093E6"/>
<path d="M30.0089 16.2173C30.9824 13.7569 30.6859 11.2872 29.0815 10.1216C28.8251 9.93525 28.5472 9.79109 28.2531 9.6871C28.0633 9.43952 27.8404 9.21979 27.5839 9.03348C25.9796 7.86783 23.5391 8.34903 21.5 10.0352L30.0089 16.2173Z" fill="#50499C"/>
<path d="M20.4778 15.6654C21.4082 16.3414 21.6146 17.6438 20.9385 18.5743L22.0617 19.3903C22.7377 18.4599 24.0401 18.2535 24.9705 18.9296C26.2111 19.831 27.9476 19.556 28.849 18.3153C29.3412 17.638 29.7278 16.9281 30.009 16.2176C30.5057 14.4135 29.8699 12.4107 28.2655 11.2451C28.0091 11.0588 27.7399 10.9027 27.4623 10.776C27.256 10.5511 27.0244 10.3434 26.768 10.1571C25.1636 8.9914 23.0625 9.00561 21.5001 10.0355C20.9111 10.5225 20.3556 11.1096 19.8634 11.787C18.9621 13.0276 19.2372 14.7641 20.4778 15.6654Z" fill="#4562B5"/>
<path d="M12.9911 16.2173C10.7574 17.6356 9.54558 19.8078 10.1584 21.6939C10.2564 21.9954 10.3964 22.2753 10.5732 22.5323C10.5812 22.8442 10.6325 23.1529 10.7304 23.4544C11.3432 25.3405 13.6004 26.3856 16.2412 26.2201L12.9911 16.2173Z" fill="#3B7ACE"/>
<path d="M20.377 22.2663C20.0216 21.1725 20.6202 19.9977 21.7141 19.6423L21.285 18.3219C20.1912 18.6773 19.0163 18.0787 18.6609 16.9848C18.187 15.5264 16.6206 14.7282 15.1621 15.2021C14.3658 15.4608 13.6358 15.8077 12.9906 16.2173C11.5284 17.385 10.8656 19.3789 11.4784 21.2649C11.5763 21.5664 11.7023 21.8509 11.8524 22.1166C11.8871 22.4198 11.9524 22.724 12.0504 23.0254C12.6632 24.9115 14.3714 26.135 16.2408 26.2201C17.0034 26.1723 17.798 26.0239 18.5943 25.7651C20.0527 25.2913 20.8509 23.7248 20.377 22.2663Z" fill="#3093E6"/>
<path d="M21.5 10.0351C19.4609 8.34906 17.0205 7.86782 15.4161 9.03346C15.1597 9.21978 14.9367 9.43951 14.7469 9.68709C14.4528 9.79108 14.175 9.93523 13.9185 10.1215C12.3142 11.2872 12.0177 13.7569 12.9911 16.2173L21.5 10.0351Z" fill="#4562B5"/>
<path d="M18.0298 18.9292C18.9603 18.2531 20.2626 18.4594 20.9387 19.3899L22.0618 18.5738C21.3858 17.6433 21.5921 16.341 22.5225 15.665C23.7631 14.7636 24.0382 13.0271 23.1368 11.7865C22.6447 11.1091 22.0891 10.522 21.5002 10.035C19.9378 9.00512 17.8367 8.99092 16.2323 10.1566C15.9759 10.3429 15.7442 10.5506 15.538 10.7755C15.2603 10.9022 14.9912 11.0583 14.7348 11.2446C13.1304 12.4103 12.4946 14.413 12.9913 16.2171C13.2725 16.9277 13.6592 17.6375 14.1513 18.3148C15.0527 19.5555 16.7892 19.8305 18.0298 18.9292Z" fill="#3B7ACE"/>
<path d="M21.5 20.1044C22.1199 20.1044 22.6225 19.6018 22.6225 18.9819C22.6225 18.3619 22.1199 17.8594 21.5 17.8594C20.88 17.8594 20.3774 18.3619 20.3774 18.9819C20.3774 19.6018 20.88 20.1044 21.5 20.1044Z" fill="#FF8229"/>
<path d="M21.4998 20.8561C21.8832 20.8561 22.194 20.5453 22.194 20.1619C22.194 19.7786 21.8832 19.4678 21.4998 19.4678C21.1165 19.4678 20.8057 19.7786 20.8057 20.1619C20.8057 20.5453 21.1165 20.8561 21.4998 20.8561Z" fill="#FFE852"/>
<path d="M22.6219 20.0407C23.0053 20.0407 23.3161 19.7299 23.3161 19.3465C23.3161 18.9631 23.0053 18.6523 22.6219 18.6523C22.2385 18.6523 21.9277 18.9631 21.9277 19.3465C21.9277 19.7299 22.2385 20.0407 22.6219 20.0407Z" fill="#FFE852"/>
<path d="M22.1932 18.7213C22.5766 18.7213 22.8874 18.4106 22.8874 18.0272C22.8874 17.6438 22.5766 17.333 22.1932 17.333C21.8098 17.333 21.499 17.6438 21.499 18.0272C21.499 18.4106 21.8098 18.7213 22.1932 18.7213Z" fill="#FFE852"/>
<path d="M20.8065 18.7213C21.1899 18.7213 21.5006 18.4106 21.5006 18.0272C21.5006 17.6438 21.1899 17.333 20.8065 17.333C20.4231 17.333 20.1123 17.6438 20.1123 18.0272C20.1123 18.4106 20.4231 18.7213 20.8065 18.7213Z" fill="#FFE852"/>
<path d="M20.3773 20.0407C20.7607 20.0407 21.0714 19.7299 21.0714 19.3465C21.0714 18.9631 20.7607 18.6523 20.3773 18.6523C19.9939 18.6523 19.6831 18.9631 19.6831 19.3465C19.6831 19.7299 19.9939 20.0407 20.3773 20.0407Z" fill="#FFE852"/>
</g>
<defs>
<clipPath id="clip0">
<rect width="75" height="75" fill="white" transform="translate(0 -1)"/>
</clipPath>
</defs>
</svg>
