<svg width="56" height="56" viewBox="0 0 56 56" fill="none" xmlns="http://www.w3.org/2000/svg">
<path fill-rule="evenodd" clip-rule="evenodd" d="M28.303 5.15152C34.8525 5.70106 40.364 9.48672 44.512 14.6169C48.7231 19.8252 52.1784 26.222 50.6181 32.7505C49.0736 39.2122 42.9057 42.8284 37.0393 45.8811C30.8678 49.0926 23.9137 52.9114 17.6373 49.9129C11.3384 46.9037 10.0549 39.0127 8.39641 32.1973C6.68735 25.174 4.03228 17.3897 8.30898 11.5792C12.6903 5.62668 20.9675 4.53603 28.303 5.15152Z" fill="#EA2626"/>
<g clip-path="url(#clip0)">
<path d="M31.1394 14.7214C30.7583 14.5528 30.5859 14.1072 30.7549 13.7261L33.688 7.09877C33.857 6.71767 34.3026 6.54601 34.6837 6.71424C35.0648 6.88285 35.2368 7.32842 35.0682 7.70951L32.1347 14.3369C31.9664 14.7172 31.5212 14.8904 31.1394 14.7214Z" fill="#AF1571"/>
<path d="M37.3489 43.1766L33.2244 37.525C32.9784 37.1882 33.0524 36.7163 33.3888 36.4706C33.7253 36.2249 34.1976 36.2986 34.4432 36.635L38.5681 42.2866C38.8138 42.6234 38.7402 43.0953 38.4033 43.341C38.0669 43.587 37.595 43.513 37.3489 43.1766Z" fill="#AF1571"/>
<path d="M39.4743 25.5451C39.0936 25.5451 38.7667 25.2582 38.7251 24.871C38.6805 24.4567 38.9803 24.0848 39.395 24.0402L46.4492 23.2833C46.8643 23.2395 47.2358 23.5385 47.2801 23.9528C47.3247 24.3675 47.0249 24.7394 46.6102 24.7837L39.556 25.5409C39.5285 25.5436 39.5014 25.5451 39.4743 25.5451Z" fill="#AF1571"/>
<path d="M41.3488 26.2523C41.3488 34.6688 34.5257 41.4915 26.1092 41.4915C17.6927 41.4915 10.8696 34.6688 10.8696 26.2523C10.8696 17.8354 17.6927 11.0127 26.1092 11.0127C34.5257 11.0127 41.3488 17.8354 41.3488 26.2523Z" fill="#E98CC4"/>
<path d="M13.8879 26.2523C13.8879 18.3447 19.9102 11.8447 27.6183 11.0871C27.122 11.0383 26.6185 11.0127 26.1092 11.0127C17.6927 11.0127 10.8696 17.8354 10.8696 26.2523C10.8696 34.6688 17.6927 41.4915 26.1092 41.4915C26.6185 41.4915 27.122 41.4659 27.6183 41.4171C19.9106 40.6595 13.8879 34.1595 13.8879 26.2523Z" fill="#DA3F9C"/>
<path d="M17.2203 45.5143C16.8392 45.3457 16.6671 44.9002 16.8357 44.5191L19.7021 38.0428C19.8711 37.6617 20.3167 37.4896 20.6978 37.6583C21.0789 37.8269 21.2509 38.2724 21.0823 38.6535L18.2159 45.1298C18.0473 45.5102 17.6025 45.6833 17.2203 45.5143Z" fill="#AF1571"/>
<path d="M17.6198 15.6956L13.4293 9.95398C13.1836 9.61752 13.2573 9.14525 13.5941 8.89996C13.9306 8.65391 14.4025 8.72792 14.6481 9.06438L18.8386 14.8056C19.0843 15.1424 19.0107 15.6143 18.6742 15.86C18.3374 16.106 17.8655 16.032 17.6198 15.6956Z" fill="#AF1571"/>
<path d="M5.7087 28.9023C5.32799 28.9023 5.00068 28.6151 4.95948 28.2279C4.91485 27.8136 5.21469 27.4416 5.62897 27.397L12.6451 26.6444C13.0597 26.5993 13.4313 26.8999 13.4759 27.3142C13.5202 27.7285 13.2203 28.1004 12.8061 28.1451L5.78995 28.8977C5.76287 28.9004 5.7354 28.9023 5.7087 28.9023Z" fill="#AF1571"/>
<path d="M14.1644 5.54645C12.9174 4.82623 11.3232 5.25348 10.6033 6.50052C9.88311 7.74757 10.3104 9.34176 11.5574 10.0616C12.8045 10.7818 14.3986 10.3546 15.1185 9.10753C15.8387 7.86087 15.4115 6.2663 14.1644 5.54645Z" fill="#E98CC4"/>
<path d="M13.6335 6.50003C13.8262 6.16662 14.0818 5.89234 14.3759 5.68214C14.3084 5.63408 14.2378 5.5883 14.1642 5.54596C12.9175 4.82611 11.3229 5.25336 10.6031 6.50003C9.88324 7.74707 10.3105 9.34164 11.5572 10.0615C12.4708 10.5887 13.5702 10.4998 14.3759 9.92492C13.2948 9.15434 12.956 7.67345 13.6335 6.50003Z" fill="#DA3F9C"/>
<path d="M26.8577 33.475C26.8577 34.8827 25.7163 36.0241 24.3083 36.0241C22.9007 36.0241 21.7593 34.8827 21.7593 33.475C21.7593 32.0674 22.9007 30.926 24.3083 30.926C25.7163 30.926 26.8577 32.0674 26.8577 33.475Z" fill="#DA3F9C"/>
<path d="M24.4758 33.475C24.4758 32.5668 24.9515 31.7698 25.6667 31.3186C25.2734 31.0702 24.808 30.926 24.3083 30.926C22.9007 30.926 21.7593 32.0674 21.7593 33.475C21.7593 34.8831 22.9007 36.0241 24.3083 36.0241C24.808 36.0241 25.2734 35.8799 25.6667 35.6319C24.9515 35.1802 24.4758 34.3833 24.4758 33.475Z" fill="#AF1571"/>
<path d="M32.8629 27.9405C32.8629 28.7374 32.2171 29.3833 31.4202 29.3833C30.6233 29.3833 29.9771 28.7374 29.9771 27.9405C29.9771 27.1436 30.6233 26.4978 31.4202 26.4978C32.2171 26.4978 32.8629 27.1436 32.8629 27.9405Z" fill="#DA3F9C"/>
<path d="M32.2472 27.9405C32.2472 27.6048 32.3628 27.2966 32.5551 27.0517C32.2907 26.7149 31.881 26.4978 31.4198 26.4978C30.6229 26.4978 29.9771 27.1436 29.9771 27.9405C29.9771 28.7374 30.6229 29.3833 31.4198 29.3833C31.881 29.3833 32.2907 29.1662 32.5551 28.8294C32.3628 28.5845 32.2472 28.2762 32.2472 27.9405Z" fill="#AF1571"/>
<path d="M25.9393 21.4462C25.9393 23.0526 24.6373 24.3546 23.0309 24.3546C21.4245 24.3546 20.1226 23.0526 20.1226 21.4462C20.1226 19.8398 21.4245 18.5378 23.0309 18.5378C24.6373 18.5378 25.9393 19.8398 25.9393 21.4462Z" fill="#DA3F9C"/>
<path d="M22.839 21.4462C22.839 20.3308 23.4673 19.3622 24.389 18.8743C23.9839 18.6599 23.5215 18.5378 23.0309 18.5378C21.4245 18.5378 20.1226 19.8398 20.1226 21.4462C20.1226 23.0526 21.4245 24.3546 23.0309 24.3546C23.5215 24.3546 23.9839 24.2325 24.389 24.0181C23.4673 23.5302 22.839 22.5616 22.839 21.4462Z" fill="#AF1571"/>
<path d="M19.2004 27.027C19.2004 27.7041 18.6515 28.2534 17.974 28.2534C17.2969 28.2534 16.7476 27.7041 16.7476 27.027C16.7476 26.3495 17.2969 25.8005 17.974 25.8005C18.6515 25.8005 19.2004 26.3495 19.2004 27.027Z" fill="#DA3F9C"/>
<path d="M33.2926 20.1973C33.2926 21.1136 32.5498 21.8563 31.6332 21.8563C30.7169 21.8563 29.9741 21.1136 29.9741 20.1973C29.9741 19.2806 30.7169 18.5378 31.6332 18.5378C32.5498 18.5378 33.2926 19.2806 33.2926 20.1973Z" fill="#DA3F9C"/>
<path d="M32.6906 20.1973C32.6906 19.8429 32.8024 19.5152 32.9916 19.2459C32.6914 18.8182 32.1955 18.5378 31.6332 18.5378C30.7169 18.5378 29.9741 19.2806 29.9741 20.1973C29.9741 21.1136 30.7169 21.8563 31.6332 21.8563C32.1955 21.8563 32.6914 21.5759 32.9916 21.1483C32.8024 20.879 32.6906 20.5513 32.6906 20.1973Z" fill="#AF1571"/>
<path d="M31.7634 33.8019C31.5703 33.8019 31.3773 33.7279 31.2297 33.5807C30.9352 33.2862 30.9352 32.8082 31.2297 32.5137L31.7225 32.0204C32.0174 31.7259 32.495 31.7259 32.7899 32.0204C33.0844 32.3153 33.0844 32.7929 32.7899 33.0874L32.297 33.5807C32.1494 33.7279 31.9564 33.8019 31.7634 33.8019Z" fill="#DA3F9C"/>
<path d="M26.9465 27.4877C26.7653 27.4877 26.5834 27.4228 26.4392 27.2912L25.923 26.8224C25.6148 26.542 25.5923 26.0644 25.8727 25.7562C26.1531 25.448 26.6303 25.4251 26.9385 25.7058L27.4543 26.1747C27.7625 26.455 27.7854 26.9323 27.505 27.2409C27.3559 27.4045 27.1518 27.4877 26.9465 27.4877Z" fill="#DA3F9C"/>
<path d="M36.5576 3.30304C35.3106 2.58319 33.7164 3.01044 32.9961 4.25711C32.2763 5.50415 32.7035 7.09872 33.9506 7.81856C35.1973 8.53841 36.7918 8.11116 37.5117 6.86449C38.2315 5.61745 37.8046 4.02288 36.5576 3.30304Z" fill="#E98CC4"/>
<path d="M36.0266 4.25637C36.2193 3.92296 36.4748 3.64868 36.769 3.43849C36.7014 3.39042 36.6309 3.34465 36.5572 3.3023C35.3106 2.58246 33.716 3.00971 32.9962 4.25637C32.2763 5.50342 32.7036 7.09761 33.9502 7.81783C34.8635 8.34503 35.9633 8.25615 36.769 7.68126C35.6879 6.91068 35.3491 5.42979 36.0266 4.25637Z" fill="#DA3F9C"/>
<path d="M49.6966 21.5584C48.4496 20.8385 46.8554 21.2658 46.1356 22.5128C45.4153 23.7595 45.8426 25.3541 47.0896 26.0739C48.3363 26.7938 49.9309 26.3669 50.6507 25.1199C51.3709 23.8728 50.9437 22.2786 49.6966 21.5584Z" fill="#E98CC4"/>
<path d="M49.1662 22.5119C49.3589 22.1781 49.6145 21.9038 49.909 21.694C49.8411 21.6455 49.7705 21.5998 49.6973 21.5574C48.4502 20.8376 46.8556 21.2648 46.1358 22.5119C45.416 23.7585 45.8432 25.3531 47.0899 26.0729C48.0035 26.6005 49.1029 26.5116 49.909 25.9368C48.8275 25.1662 48.4887 23.6853 49.1662 22.5119Z" fill="#DA3F9C"/>
<path d="M40.4427 42.0887C39.1961 41.3688 37.6015 41.7961 36.8817 43.0427C36.1614 44.2898 36.5887 45.8844 37.8357 46.6042C39.0828 47.324 40.677 46.8968 41.3968 45.6501C42.117 44.4031 41.6898 42.8085 40.4427 42.0887Z" fill="#E98CC4"/>
<path d="M39.9133 43.0421C40.106 42.7087 40.3615 42.4341 40.6557 42.2243C40.5881 42.1758 40.5176 42.1304 40.4439 42.0877C39.1973 41.3678 37.6027 41.7951 36.8829 43.0421C36.163 44.2888 36.5903 45.8834 37.8369 46.6032C38.7506 47.1308 39.85 47.0419 40.656 46.467C39.5746 45.6965 39.2358 44.2156 39.9133 43.0421Z" fill="#DA3F9C"/>
<path d="M18.0499 44.3321C16.8032 43.6119 15.2087 44.0391 14.4888 45.2862C13.769 46.5332 14.1962 48.1274 15.4429 48.8473C16.6899 49.5675 18.2841 49.1402 19.0044 47.8932C19.7242 46.6465 19.2969 45.0519 18.0499 44.3321Z" fill="#E98CC4"/>
<path d="M17.5202 45.2859C17.7129 44.9525 17.9685 44.6782 18.263 44.468C18.1951 44.4196 18.1245 44.3742 18.0513 44.3319C16.8042 43.6116 15.2096 44.0389 14.4898 45.2859C13.77 46.533 14.1972 48.1271 15.4439 48.847C16.3575 49.3746 17.4569 49.2857 18.263 48.7108C17.1815 47.9402 16.8427 46.4593 17.5202 45.2859Z" fill="#DA3F9C"/>
<path d="M4.91051 26.0606C3.66346 25.3407 2.06928 25.768 1.34943 27.015C0.629206 28.2617 1.05646 29.8563 2.3035 30.5761C3.55055 31.296 5.14473 30.8687 5.86458 29.622C6.5848 28.375 6.15755 26.7808 4.91051 26.0606Z" fill="#E98CC4"/>
<path d="M4.38036 27.0147C4.57301 26.6813 4.8286 26.407 5.12271 26.1972C5.05519 26.1487 4.98462 26.1029 4.911 26.0606C3.66433 25.3408 2.06976 25.768 1.34992 27.0147C0.629694 28.2617 1.05695 29.8563 2.30399 30.5761C3.21724 31.1033 4.31666 31.0144 5.12271 30.4396C4.04161 29.669 3.70286 28.1881 4.38036 27.0147Z" fill="#DA3F9C"/>
</g>
<defs>
<clipPath id="clip0">
<rect width="50" height="50" fill="white" transform="translate(1 1)"/>
</clipPath>
</defs>
</svg>
