<svg width="56" height="56" viewBox="0 0 56 56" fill="none" xmlns="http://www.w3.org/2000/svg">
<path fill-rule="evenodd" clip-rule="evenodd" d="M30.0444 4.00868C37.0926 3.76464 42.997 8.7001 47.3104 14.2341C51.5285 19.6458 53.9506 26.2901 52.6466 33.0069C51.2863 40.0137 46.8899 46.1429 40.4848 49.3925C33.8874 52.7397 26.1593 52.8178 19.3602 49.8946C12.1875 46.8109 5.26238 41.4291 4.12154 33.7586C3.04132 26.4957 9.38662 20.9342 14.2267 15.3796C18.7065 10.2385 23.1974 4.24576 30.0444 4.00868Z" fill="#4D7DE5"/>
<g clip-path="url(#clip0)">
<path d="M36.1795 8.21825C36.0403 7.70399 35.9725 7.18739 35.969 6.67884L8.67786 14.0683C7.13477 14.4861 6.21432 16.0901 6.63213 17.6332L15.1744 49.1819C15.5922 50.7249 17.1962 51.6454 18.7393 51.2276L48.616 43.1381C50.1587 42.7203 51.0795 41.1163 50.6617 39.5732L43.2742 12.2893C40.0525 13.1616 37.0518 11.4396 36.1795 8.21825Z" fill="#884488"/>
<path d="M45.4356 42.403C45.5749 42.9172 45.7769 43.3975 46.0305 43.8383L18.7394 51.2277C17.1963 51.6455 15.5923 50.7251 15.1745 49.182L6.63226 17.6333C6.21445 16.0902 7.1349 14.4863 8.67799 14.0684L38.5547 5.97891C40.0975 5.56119 41.7018 6.48155 42.1196 8.02464L49.5071 35.3085C46.2853 36.1808 44.5634 39.1816 45.4356 42.403Z" fill="#884488"/>
<path d="M17.3966 48.5802L8.85439 17.0316C8.43658 15.4885 9.7011 13.7913 11.6639 13.2599L8.47634 14.123C6.51311 14.6545 5.24899 16.3516 5.6668 17.8947L14.209 49.4433C14.6269 50.9864 16.5745 51.8138 18.5377 51.2822L21.7253 50.4192C19.7625 50.9506 17.8144 50.1233 17.3966 48.5802Z" fill="#250A25"/>
<path d="M33.4 10.9636L15.6432 15.7715C15.0178 15.9409 14.6449 16.5911 14.8142 17.2165L17.0325 25.4091C17.2019 26.0346 17.8521 26.4077 18.4772 26.2385L36.234 21.4306C36.8591 21.2613 37.2323 20.611 37.063 19.9859L34.8447 11.793C34.6753 11.1676 34.025 10.7944 33.4 10.9636Z" fill="#E4EAF8"/>
<path d="M19.5379 24.7308L17.3197 16.5381C17.1503 15.9127 17.5235 15.2624 18.1486 15.0932L15.6432 15.7715C15.0178 15.9409 14.6449 16.5911 14.8142 17.2165L17.0325 25.4091C17.2019 26.0346 17.8521 26.4077 18.4772 26.2385L20.983 25.56C20.3576 25.7293 19.7073 25.3562 19.5379 24.7308Z" fill="#D8DCE5"/>
<path d="M30.877 26.528L25.6745 27.9366C25.3287 28.0303 24.9723 27.826 24.8786 27.4799C24.785 27.1341 24.9892 26.7776 25.3353 26.6839L30.5378 25.2753C30.8836 25.1817 31.24 25.3859 31.3337 25.7321C31.4274 26.0778 31.2228 26.4344 30.877 26.528Z" fill="#B88FB8"/>
<path d="M39.4952 23.5223C38.6833 23.7421 38.0064 24.3026 37.6393 25.0594L34.1803 32.1875C33.8743 32.8186 33.8064 33.5395 33.9897 34.2165L35.5741 40.0681C35.9937 41.6178 37.5905 42.5341 39.1402 42.1145L44.1612 40.755C45.7109 40.3354 46.6272 38.7386 46.2076 37.1889L43.0613 25.5687C42.6413 24.0187 41.045 23.1027 39.4952 23.5223Z" fill="#B88FB8"/>
<path d="M38.0796 39.3897L36.4952 33.5381C36.3118 32.8611 36.3794 32.1403 36.6857 31.5091L40.1447 24.3807C40.3132 24.0339 40.547 23.7289 40.8286 23.4784C40.4003 23.3917 39.9458 23.4003 39.4949 23.5224C38.6833 23.7421 38.0064 24.3026 37.6392 25.059L34.1803 32.1875C33.874 32.8186 33.8064 33.5395 33.9897 34.2165L35.5741 40.0681C35.9937 41.6178 37.5902 42.5342 39.1402 42.1145L41.6456 41.4361C40.0959 41.8557 38.4992 40.9394 38.0796 39.3897Z" fill="#701E70"/>
<path d="M40.9426 27.7881L39.2966 28.2338C38.9505 28.3275 38.5943 28.1228 38.5006 27.777C38.4069 27.4309 38.6113 27.0748 38.9574 26.981L40.6034 26.5354C40.9495 26.4416 41.306 26.6459 41.3997 26.992C41.4933 27.3378 41.2887 27.6944 40.9426 27.7881Z" fill="#701E70"/>
<path d="M41.6574 30.4282L38.0345 31.4091C37.6887 31.5027 37.3322 31.2982 37.2384 30.952C37.1448 30.6062 37.3491 30.2498 37.6952 30.1561L41.3181 29.1751C41.6642 29.0814 42.0208 29.286 42.1144 29.6318C42.2081 29.9779 42.0035 30.3344 41.6574 30.4282Z" fill="#701E70"/>
<path d="M42.3721 33.0678L37.2624 34.4513C36.9166 34.5449 36.5601 34.3403 36.4665 33.9945C36.3728 33.6487 36.5774 33.2922 36.9232 33.1986L42.0329 31.8151C42.379 31.7213 42.7354 31.9256 42.8292 32.2717C42.9228 32.6175 42.7182 32.9741 42.3721 33.0678Z" fill="#701E70"/>
<path d="M43.087 35.7077L37.9774 37.0912C37.6316 37.1849 37.275 36.9803 37.1813 36.6342C37.0877 36.2884 37.2923 35.9318 37.6381 35.8382L42.7477 34.4547C43.0938 34.361 43.4504 34.5656 43.544 34.9114C43.6377 35.2575 43.4331 35.614 43.087 35.7077Z" fill="#701E70"/>
<path d="M43.8018 38.3476L38.6921 39.7311C38.3463 39.8247 37.9898 39.6201 37.8962 39.2743C37.8024 38.9282 38.0071 38.572 38.3529 38.4784L43.4626 37.0948C43.8087 37.0011 44.1651 37.2054 44.2588 37.5515C44.3525 37.8973 44.1479 38.2538 43.8018 38.3476Z" fill="#701E70"/>
<path d="M16.7174 29.6896C17.5293 29.4698 18.3965 29.6123 19.0953 30.0804L25.6779 34.4896C26.2608 34.88 26.6831 35.4681 26.8664 36.1452L28.4508 41.9968C28.8704 43.5465 27.9541 45.1432 26.4044 45.5628L21.3834 46.9223C19.8336 47.342 18.2369 46.4257 17.8173 44.8759L14.671 33.2557C14.2513 31.7057 15.1676 30.1092 16.7174 29.6896Z" fill="#B88FB8"/>
<path d="M20.3227 44.1973L17.1764 32.5771C16.8788 31.478 17.2534 30.3559 18.0492 29.6462C17.6125 29.5585 17.1569 29.5704 16.7171 29.6895C15.1673 30.1091 14.2514 31.7057 14.671 33.2555L17.8174 44.876C18.237 46.4257 19.8333 47.3418 21.3831 46.9222L23.8888 46.2437C22.3388 46.6634 20.7423 45.747 20.3227 44.1973Z" fill="#701E70"/>
<path d="M19.2657 33.6571L17.6194 34.1029C17.2736 34.1965 16.917 33.9919 16.8234 33.6461C16.7297 33.3 16.9344 32.9438 17.2802 32.8502L18.9265 32.4044C19.2723 32.3108 19.6287 32.5151 19.7224 32.8612C19.8161 33.207 19.6115 33.5635 19.2657 33.6571Z" fill="#701E70"/>
<path d="M21.9575 35.7618L18.3343 36.7429C17.9885 36.8365 17.632 36.6319 17.5382 36.2858C17.4446 35.94 17.6492 35.5835 17.995 35.4898L21.6183 34.5088C21.964 34.4152 22.3206 34.6198 22.4142 34.9655C22.5079 35.3117 22.3033 35.6682 21.9575 35.7618Z" fill="#701E70"/>
<path d="M24.1587 37.9992L19.049 39.3827C18.7032 39.4763 18.3467 39.2717 18.2531 38.9259C18.1595 38.5801 18.3641 38.2236 18.7099 38.13L23.8195 36.7465C24.1656 36.6527 24.5217 36.8571 24.6155 37.2032C24.7091 37.549 24.5048 37.9055 24.1587 37.9992Z" fill="#701E70"/>
<path d="M24.8736 40.6391L19.764 42.0226C19.4182 42.1163 19.0616 41.9117 18.9679 41.5656C18.8743 41.2198 19.0789 40.8632 19.4247 40.7696L24.5343 39.3861C24.8805 39.2924 25.2367 39.4971 25.3303 39.8429C25.424 40.189 25.2197 40.5454 24.8736 40.6391Z" fill="#701E70"/>
<path d="M25.5884 43.2787L20.4787 44.6622C20.1329 44.7558 19.7764 44.5513 19.6828 44.2055C19.5891 43.8593 19.7937 43.5031 20.1395 43.4095L25.2492 42.026C25.5953 41.9323 25.9514 42.1366 26.0451 42.4828C26.1388 42.8286 25.9345 43.185 25.5884 43.2787Z" fill="#701E70"/>
<path d="M25.5981 17.3442C22.0002 18.3184 19.8652 22.0091 20.8037 25.6085L24.864 24.5091C24.6232 23.1968 25.4243 21.8977 26.7349 21.5428C28.0456 21.1879 29.3931 21.9056 29.8469 23.1599L33.9072 22.0605C32.9015 18.4793 29.1963 16.3699 25.5981 17.3442Z" fill="#D8DCE5"/>
<path d="M26.8839 17.1259C26.4567 17.1573 26.0269 17.2281 25.5981 17.3442C22.0002 18.3184 19.8653 22.0094 20.8037 25.6085L23.3092 24.9301C22.4826 21.7595 24.0415 18.5192 26.8839 17.1259Z" fill="#C3C8D1"/>
<path d="M24.9638 15.0018C24.618 15.0954 24.4134 15.4519 24.5071 15.7981L26.1302 21.7928C26.3167 21.6869 26.5185 21.6013 26.7348 21.5428C26.9514 21.4841 27.1688 21.4562 27.3829 21.4536L25.7598 15.4589C25.6661 15.1128 25.3099 14.9081 24.9638 15.0018Z" fill="#F77C7C"/>
</g>
<defs>
<clipPath id="clip0">
<rect width="40" height="40" fill="white" transform="translate(3.46826 13.9221) rotate(-15.1504)"/>
</clipPath>
</defs>
</svg>
